<svg width="146" height="42" viewBox="0 0 146 42" fill="none" xmlns="http://www.w3.org/2000/svg">
<path d="M142.084 23.048C143.09 23.048 143.592 22.122 143.592 20.6838C143.592 19.2456 143.09 18.3247 142.084 18.3247V16.333C144.12 16.333 146 17.9212 146 20.6838C146 23.4463 144.12 25.0397 142.084 25.0397V23.048ZM142.084 23.048V25.0397C140.034 25.0397 138.149 23.4515 138.149 20.6838C138.149 17.9161 140.034 16.333 142.084 16.333V18.3247C141.079 18.3247 140.607 19.2456 140.607 20.6838C140.607 22.122 141.089 23.048 142.084 23.048Z" fill="#B3C1D5"/>
<path d="M44.9943 6.61834C46.5576 4.64212 47.965 2.92975 49.0156 1.77092C49.2694 1.48793 49.5451 1.22667 49.84 0.989745C49.0498 0.336965 48.0634 -0.0123914 47.0502 0.00163638H44.9943V6.61834ZM44.9943 31.8694V15.9148C46.6682 11.9469 48.7442 7.58574 51.1771 2.58313C51.4432 3.03959 51.6542 3.52777 51.8054 4.03683L58.4357 23.8973C59.5767 27.7204 56.048 28.5222 56.048 28.5222L44.9943 31.8694ZM19.906 27.1358C18.584 20.9278 10.6116 11.7296 9.89784 11.0674C9.18405 10.4052 8.94779 8.90494 11.5064 10.2293C22.0625 15.682 29.2707 25.6303 29.9493 25.6096C30.7737 25.5838 39.0326 14.1507 44.9943 6.61834V0.00163638H3.49885C3.49885 0.00163638 -0.0952406 -0.194949 0.759298 3.72127L8.16363 38.6206C8.16363 38.6206 8.99806 42.542 12.5268 41.7246L20.66 39.2517L20.6952 38.8224C21.1979 32.216 20.6399 30.3691 19.9462 27.1099L19.906 27.1358ZM44.9943 15.9148V31.8694L40.1284 33.349C40.5708 27.9066 42.2497 22.4539 44.9943 15.9148Z" fill="#B3C1D5"/>
<path d="M51.1966 2.58361C44.7473 15.8429 40.8265 24.6065 40.1378 33.3494L29.5365 36.5724V25.3153C29.7477 25.5118 29.8884 25.6153 29.9588 25.6153C30.9993 25.5791 43.8978 7.34827 49.0602 1.77141C49.3135 1.48982 49.5875 1.22866 49.8796 0.990234C50.3973 1.44821 50.8432 1.98566 51.2016 2.58361H51.1966ZM29.5466 19.9609C31.4181 19.9099 33.1964 19.1089 34.5026 17.7286C35.8088 16.3482 36.5397 14.4976 36.5397 12.5708C36.5397 10.6439 35.8088 8.79328 34.5026 7.41292C33.1964 6.03256 31.4181 5.23161 29.5466 5.18064V19.9609ZM29.5466 36.5724L20.6443 39.2781L20.6745 38.8487C21.1771 32.2424 20.6141 30.3955 19.9255 27.1414C18.6035 20.9334 10.6311 11.7301 9.9123 11.0679C9.19348 10.4057 8.96728 8.9106 11.5208 10.2298C20.9761 15.1134 27.7571 23.6184 29.5466 25.3153V36.5724ZM29.5466 5.18064C27.6751 5.23161 25.8968 6.03256 24.5906 7.41292C23.2844 8.79328 22.5534 10.6439 22.5534 12.5708C22.5534 14.4976 23.2844 16.3482 24.5906 17.7286C25.8968 19.1089 27.6751 19.9099 29.5466 19.9609V5.18064Z" fill="white"/>
<path d="M63.2012 13.9229H65.6542L68.4239 19.3445L69.4795 21.7553H69.5449C69.4293 20.6016 69.2382 19.0652 69.2382 17.777V13.9229H71.5103V24.8386H69.0573L66.2926 19.3962L65.2521 17.0217H65.1817C65.2973 18.2271 65.4933 19.6808 65.4933 20.9741V24.8386H63.2012V13.9229Z" fill="#B3C1D5"/>
<path d="M76.8022 23.048C77.7774 23.048 78.2851 22.122 78.2851 20.6838C78.2851 19.2456 77.7824 18.3247 76.8022 18.3247V16.333C78.8129 16.333 80.7231 17.9212 80.7231 20.6838C80.7231 23.4463 78.833 25.0397 76.8022 25.0397V23.048ZM76.8022 23.048V25.0397C74.7513 25.0397 72.8663 23.4515 72.8663 20.6838C72.8663 17.9161 74.7513 16.333 76.8022 16.333V18.3247C75.7969 18.3247 75.3244 19.2456 75.3244 20.6838C75.3244 22.122 75.807 23.048 76.8022 23.048Z" fill="#B3C1D5"/>
<path d="M80.8888 16.5352H83.2966L84.3371 20.4566C84.5432 21.2688 84.7594 22.1431 84.9705 23.0122H85.0358C85.2319 22.1431 85.443 21.2688 85.6541 20.4566L86.7097 16.5352H89.0019L86.3679 24.8384H83.6032L80.8888 16.5352Z" fill="#B3C1D5"/>
<path d="M93.1089 23.048C94.079 23.048 94.5867 22.122 94.5867 20.6838C94.5867 19.2456 94.0841 18.3247 93.1089 18.3247V16.333C95.1196 16.333 97.0247 17.9212 97.0247 20.6838C97.0247 23.4463 95.1397 25.0397 93.1089 25.0397V23.048ZM93.1089 23.048V25.0397C91.063 25.0397 89.173 23.4515 89.173 20.6838C89.173 17.9161 91.063 16.333 93.1089 16.333V18.3247C92.1035 18.3247 91.631 19.2456 91.631 20.6838C91.631 22.122 92.1136 23.048 93.1038 23.048H93.1089Z" fill="#B3C1D5"/>
<path d="M103.346 16.0022H100.415V13.9277H108.649V16.0022H105.733V24.8383H103.346V16.0022Z" fill="#B3C1D5"/>
<path d="M113.116 19.8311C113.116 18.8792 112.729 18.2118 111.774 18.2118H111.663V16.3339H111.718C114.016 16.3339 115.152 18.0618 115.152 20.3173C115.156 20.6648 115.124 21.0116 115.056 21.352H111.663V19.8259L113.116 19.8311ZM111.663 25.0044V23.0644C111.88 23.1193 112.103 23.147 112.327 23.1472C112.945 23.1369 113.547 22.9429 114.061 22.5884L114.86 24.0784C114.016 24.671 113.022 24.9964 112 25.0147L111.663 25.0044ZM111.663 18.1963C110.964 18.2428 110.361 18.7602 110.21 19.8104H111.663V21.3365H110.225C110.262 21.7421 110.42 22.126 110.678 22.4354C110.935 22.7448 111.279 22.9646 111.663 23.0644V25.0044C109.522 24.8544 107.913 23.2765 107.913 20.664C107.913 18.0514 109.753 16.3494 111.663 16.3184V18.1963Z" fill="#B3C1D5"/>
<path d="M116.328 16.5348H118.284L118.444 17.6109H118.51C119.173 16.9228 119.887 16.333 120.948 16.333C121.414 16.2958 121.879 16.4101 122.279 16.6598C122.678 16.9094 122.992 17.2819 123.175 17.7247C123.888 16.9694 124.637 16.333 125.713 16.333C127.452 16.333 128.226 17.6109 128.226 19.6802V24.8535H125.834V20.0164C125.834 18.8111 125.527 18.4644 124.828 18.4644C124.284 18.5381 123.789 18.8255 123.446 19.2663V24.8742H121.058V20.0371C121.058 18.8318 120.747 18.4851 120.053 18.4851C119.513 18.5585 119.022 18.8463 118.686 19.287V24.8949H116.293L116.328 16.5348Z" fill="#B3C1D5"/>
<path d="M133.564 23.0221C134.344 22.9652 134.957 22.2203 134.957 20.5855C134.957 19.1007 134.519 18.3506 133.564 18.3454V16.4261C133.791 16.3665 134.024 16.3353 134.258 16.333C136.208 16.333 137.41 17.9937 137.41 20.5545C137.41 23.3998 135.751 25.0346 134.012 25.0346C133.862 25.0339 133.712 25.02 133.564 24.9932V23.0221ZM133.459 23.0221H133.564V24.9932C133.007 24.8681 132.495 24.5808 132.092 24.1654L132.177 25.4898V27.9161H129.784V16.5348H131.735L131.901 17.3573H131.956C132.411 16.9225 132.958 16.6035 133.554 16.4261V18.3454C133.285 18.3598 133.022 18.4343 132.783 18.5638C132.544 18.6934 132.336 18.8748 132.172 19.0956V22.4945C132.519 22.8384 132.982 23.0295 133.464 23.0273L133.459 23.0221Z" fill="#B3C1D5"/>
<path d="M107.349 31.5121V31.0568C107.524 31.0628 107.697 31.0218 107.852 30.9378C108 30.856 108.128 30.739 108.224 30.5964C108.331 30.4385 108.412 30.2638 108.465 30.0791C108.524 29.8512 108.553 29.6163 108.551 29.3807C108.552 29.1484 108.523 28.917 108.465 28.6926C108.413 28.5074 108.332 28.3326 108.224 28.1753C108.125 28.0397 107.998 27.9284 107.852 27.8494C107.697 27.7654 107.524 27.7244 107.349 27.7304V27.2751C107.585 27.2733 107.818 27.3245 108.033 27.4251C108.242 27.5191 108.427 27.6606 108.576 27.839C108.733 28.0346 108.852 28.2593 108.928 28.5012C109.011 28.7863 109.052 29.0829 109.048 29.3807C109.052 29.6818 109.012 29.9819 108.928 30.2705C108.852 30.517 108.733 30.7469 108.576 30.9482C108.426 31.1279 108.241 31.2725 108.033 31.3724C107.819 31.4756 107.585 31.5269 107.349 31.5224V31.5121ZM107.349 27.2648V27.72C107.175 27.7154 107.002 27.7563 106.846 27.839C106.699 27.918 106.57 28.0292 106.469 28.1649C106.361 28.3214 106.281 28.4966 106.233 28.6823C106.172 28.9061 106.144 29.1379 106.148 29.3703C106.143 29.6061 106.172 29.8414 106.233 30.0687C106.282 30.2539 106.362 30.429 106.469 30.586C106.567 30.729 106.696 30.846 106.846 30.9275C107.002 31.0101 107.175 31.0511 107.349 31.0465V31.5017C107.112 31.5035 106.877 31.4523 106.66 31.3517C106.454 31.2518 106.27 31.1071 106.123 30.9275C105.963 30.7274 105.844 30.4972 105.771 30.2498C105.683 29.9621 105.64 29.6616 105.645 29.36C105.64 29.06 105.683 28.7612 105.771 28.4753C105.844 28.2326 105.963 28.0074 106.123 27.8131C106.269 27.6353 106.453 27.4939 106.66 27.3993C106.877 27.3003 107.112 27.2509 107.349 27.2544V27.2648ZM103.705 30.1877V29.7687H104.308L104.122 29.1478C104.052 28.915 103.986 28.6874 103.921 28.4598C103.856 28.2322 103.79 28.0045 103.725 27.7666V27.3424H104.021L105.369 31.4396H104.811L104.429 30.1877H103.705ZM103.705 26.8561V26.4836L103.74 26.5094L103.901 26.6233C103.951 26.6545 104.008 26.6723 104.067 26.675C104.097 26.6732 104.126 26.6644 104.152 26.6491C104.178 26.6339 104.201 26.6126 104.218 26.5871C104.268 26.5176 104.299 26.4353 104.308 26.3491H104.59C104.576 26.5216 104.519 26.6876 104.424 26.8302C104.386 26.8904 104.334 26.9396 104.272 26.9732C104.21 27.0067 104.141 27.0234 104.072 27.0216C103.997 27.0228 103.923 27.0069 103.856 26.9751C103.802 26.94 103.752 26.9002 103.705 26.8561ZM103.705 26.4577V26.8561H103.675L103.514 26.7422C103.466 26.7104 103.41 26.6925 103.353 26.6905C103.323 26.6917 103.293 26.6997 103.266 26.714C103.239 26.7283 103.216 26.7485 103.197 26.7733C103.147 26.8451 103.116 26.9288 103.107 27.0164H102.83C102.843 26.8445 102.898 26.6788 102.991 26.5353C103.029 26.4754 103.081 26.4265 103.143 26.393C103.205 26.3595 103.273 26.3426 103.343 26.3439C103.419 26.342 103.495 26.3579 103.564 26.3905L103.705 26.4784V26.4577ZM103.705 27.3424V27.7666C103.644 28.0045 103.579 28.2322 103.514 28.4598C103.448 28.6874 103.383 28.915 103.313 29.1478L103.117 29.7687H103.715V30.1877H102.991L102.609 31.4396H102.106L103.453 27.3424H103.705ZM100.664 32.6916V32.3708C100.687 32.3529 100.706 32.3295 100.719 32.3025C100.733 32.2756 100.739 32.2458 100.739 32.2156C100.74 32.1831 100.734 32.1507 100.721 32.121C100.708 32.0913 100.688 32.0653 100.664 32.0449V31.5276H100.694C100.929 31.5309 101.161 31.4778 101.372 31.3724C101.566 31.2611 101.737 31.1117 101.875 30.9327L101.589 30.6171C101.472 30.7514 101.334 30.8651 101.181 30.9534C101.026 31.0344 100.853 31.0752 100.679 31.0723H100.639V31.4345H100.9L100.744 31.7656C100.838 31.7978 100.925 31.8488 101 31.9156C101.037 31.9543 101.066 32.0005 101.084 32.0514C101.102 32.1022 101.11 32.1564 101.106 32.2105C101.108 32.2963 101.081 32.3802 101.031 32.4484C100.979 32.5167 100.914 32.5731 100.84 32.614C100.776 32.6504 100.708 32.6799 100.639 32.7019L100.664 32.6916ZM100.664 27.7304V27.2699H100.724C100.944 27.2661 101.162 27.3195 101.357 27.4251C101.528 27.5119 101.682 27.6313 101.81 27.7769L101.523 28.108C101.424 27.9932 101.305 27.8984 101.171 27.8287C101.034 27.7587 100.882 27.7232 100.729 27.7252L100.664 27.7304ZM100.664 27.2699V27.7304C100.506 27.7325 100.352 27.7714 100.211 27.8442C100.055 27.9199 99.9186 28.0335 99.8141 28.1753C99.6978 28.3296 99.6108 28.5051 99.5578 28.6926C99.4951 28.9162 99.4646 29.148 99.4673 29.3807C99.4653 29.6163 99.494 29.8512 99.5527 30.0791C99.6043 30.2662 99.6895 30.4417 99.8041 30.5964C99.9058 30.7381 100.038 30.8532 100.191 30.9327C100.338 31.0071 100.5 31.0477 100.664 31.0516V31.4138H100.603L100.357 31.9001C100.456 31.9248 100.551 31.9649 100.639 32.0191H100.664V31.5017C100.433 31.5022 100.206 31.4528 99.9951 31.3569C99.7847 31.2628 99.5974 31.1214 99.4472 30.943C99.2822 30.7485 99.1573 30.5214 99.0802 30.2756C98.9861 29.9874 98.9402 29.6847 98.9445 29.3807C98.9402 29.0783 98.9861 28.7773 99.0802 28.4908C99.1571 28.2439 99.2838 28.0164 99.4522 27.8235C99.6079 27.6431 99.8 27.5001 100.015 27.4044C100.22 27.3121 100.44 27.2612 100.664 27.2544V27.2699ZM100.664 32.3708V32.6916H100.578C100.471 32.7202 100.362 32.741 100.251 32.7537L100.201 32.495C100.337 32.483 100.469 32.448 100.593 32.3915L100.664 32.3501V32.3708ZM97.0042 30.1929V29.7738H97.6024L97.4164 29.153C97.346 28.9202 97.2807 28.6926 97.2153 28.465C97.15 28.2373 97.0846 28.0097 97.0193 27.7717V27.3475H97.3159L98.663 31.4448H98.1302L97.7431 30.1929H97.0042ZM97.0042 27.3475V27.7717C96.9389 28.0097 96.8785 28.2373 96.8132 28.465C96.7478 28.6926 96.6825 28.9202 96.6121 29.153L96.4161 29.7738H97.0143V30.1929H96.2653L95.8833 31.4448H95.3806L96.7277 27.3475H97.0042ZM76.2188 31.5172V31.062C76.3936 31.068 76.5668 31.027 76.7215 30.943C76.8701 30.8612 76.9976 30.7442 77.0934 30.6016C77.2005 30.4436 77.2819 30.2689 77.3347 30.0842C77.3917 29.8562 77.4188 29.6213 77.4152 29.3858C77.4185 29.1538 77.3914 28.9224 77.3347 28.6978C77.2831 28.5126 77.2015 28.3377 77.0934 28.1804C76.9944 28.0449 76.8673 27.9335 76.7215 27.8545C76.5668 27.7705 76.3936 27.7295 76.2188 27.7355V27.2803C76.4546 27.2784 76.6879 27.3296 76.9024 27.4303C77.1115 27.5242 77.2971 27.6657 77.4453 27.8442C77.6026 28.0397 77.7221 28.2645 77.7972 28.5064C77.8808 28.7914 77.9215 29.088 77.9178 29.3858C77.9219 29.687 77.8812 29.9871 77.7972 30.2756C77.722 30.5222 77.6027 30.752 77.4453 30.9534C77.2959 31.133 77.1108 31.2777 76.9024 31.3776C76.6887 31.4807 76.4548 31.532 76.2188 31.5276V31.5172ZM78.7322 27.3475H79.3303L80.0994 29.5462L80.3859 30.3791H80.4111L80.6875 29.5462L81.4566 27.3475H82.0498V31.4448H81.5722V29.1892C81.5722 29.003 81.5722 28.8012 81.5722 28.584C81.5722 28.3667 81.6024 28.1598 81.6175 27.9787H81.5923L81.2757 28.8892L80.5116 31.0309H80.2201L79.456 28.8892L79.1393 27.9787H79.1745C79.1745 28.1598 79.1996 28.3615 79.2147 28.584C79.2298 28.8064 79.2147 29.003 79.2147 29.1892V31.4448H78.7523V27.3475H78.7322ZM83.0953 27.3475H83.598V29.7635C83.5934 29.9714 83.6188 30.1789 83.6734 30.3791C83.7091 30.5268 83.776 30.6646 83.8694 30.7826C83.9468 30.8785 84.0474 30.9516 84.161 30.9947C84.2762 31.0413 84.3992 31.0642 84.5229 31.062C84.6499 31.064 84.7761 31.0411 84.8949 30.9947C85.0114 30.9517 85.1152 30.8787 85.1965 30.7826C85.2901 30.664 85.3586 30.5266 85.3976 30.3791C85.4478 30.1781 85.4715 29.971 85.4679 29.7635V27.3475H85.9706V29.748C85.9759 30.0298 85.9386 30.3108 85.86 30.5809C85.7981 30.7835 85.6953 30.9703 85.5584 31.1292C85.4346 31.2669 85.279 31.3701 85.106 31.4293C84.9221 31.4881 84.7306 31.5178 84.538 31.5172C84.3454 31.5182 84.1538 31.4885 83.97 31.4293C83.7961 31.3689 83.6391 31.266 83.5125 31.1292C83.3757 30.9703 83.2729 30.7835 83.2109 30.5809C83.1342 30.3105 83.0986 30.0295 83.1054 29.748V27.3475H83.0953ZM86.996 27.3475H87.4987L88.9414 29.9342L89.3737 30.7826C89.3737 30.5757 89.3737 30.3584 89.3284 30.136C89.2832 29.9135 89.3284 29.6962 89.3284 29.4789V27.3631H89.806V31.4603H89.3033L87.8657 28.8737L87.4334 28.0304H87.4082C87.4082 28.2373 87.4334 28.4495 87.4485 28.6667C87.4635 28.884 87.4485 29.0961 87.4485 29.3134V31.4552H86.9709V27.3579L86.996 27.3475ZM90.8917 27.3475H91.3944V31.4448H90.8917V27.3475ZM92.2288 29.4169C92.2254 29.1149 92.2695 28.8144 92.3595 28.5271C92.4401 28.2807 92.5684 28.0537 92.7365 27.8597C92.8922 27.6793 93.0844 27.5363 93.2995 27.4407C93.5229 27.3399 93.7644 27.2888 94.0083 27.2906C94.2287 27.2868 94.4466 27.3401 94.6417 27.4458C94.8116 27.5344 94.9648 27.6535 95.0941 27.7976L94.8075 28.1287C94.7082 28.0139 94.5888 27.9191 94.4557 27.8494C94.3182 27.7794 94.1666 27.7439 94.0133 27.7459C93.8393 27.7466 93.6675 27.7873 93.5106 27.8649C93.3542 27.9406 93.218 28.0542 93.1136 28.196C92.9972 28.3503 92.9102 28.5258 92.8572 28.7133C92.7945 28.9369 92.764 29.1687 92.7667 29.4014C92.7647 29.637 92.7934 29.8719 92.8522 30.0997C92.9037 30.2869 92.9889 30.4624 93.1035 30.6171C93.2052 30.7587 93.3378 30.8739 93.4906 30.9534C93.647 31.0323 93.819 31.073 93.9932 31.0723C94.1677 31.0752 94.3402 31.0344 94.4959 30.9534C94.6487 30.8651 94.7862 30.7514 94.9031 30.6171L95.1896 30.9327C95.0443 31.1144 94.8647 31.264 94.6618 31.3724C94.4504 31.4778 94.218 31.5309 93.9832 31.5276C93.7429 31.5305 93.5048 31.4812 93.2845 31.3827C93.074 31.2887 92.8868 31.1473 92.7365 30.9689C92.5717 30.7733 92.4453 30.5467 92.3646 30.3015C92.2764 30.0068 92.2357 29.6992 92.2439 29.391L92.2288 29.4169ZM64.6172 27.3993C64.9842 27.4441 65.325 27.6177 65.5823 27.8907C65.9339 28.3061 66.1142 28.8462 66.085 29.3962C66.0879 29.6909 66.0455 29.9842 65.9593 30.2653C65.8876 30.5066 65.7658 30.729 65.6024 30.9171C65.4399 31.0962 65.2407 31.2358 65.0193 31.3258C64.8961 31.3748 64.768 31.4095 64.6373 31.4293V30.9792C64.8634 30.9212 65.0658 30.7907 65.2154 30.6067C65.4663 30.2581 65.5892 29.8292 65.5622 29.3962C65.5904 28.9678 65.4673 28.5434 65.2154 28.2011C65.063 28.0248 64.8609 27.9018 64.6373 27.8494V27.3993H64.6172ZM76.2037 27.2906V27.7459C76.029 27.7399 75.8557 27.7809 75.7011 27.8649C75.5537 27.9438 75.4251 28.0551 75.324 28.1908C75.2157 28.3472 75.1357 28.5225 75.0878 28.7081C75.0269 28.932 74.9981 29.1638 75.0023 29.3962C74.9978 29.632 75.0266 29.8673 75.0878 30.0946C75.1368 30.2798 75.2167 30.4549 75.324 30.6119C75.4216 30.7549 75.5509 30.8719 75.7011 30.9534C75.8557 31.0373 76.029 31.0783 76.2037 31.0723V31.5276C75.9663 31.53 75.7312 31.4788 75.5151 31.3776C75.3082 31.2776 75.1248 31.1329 74.9772 30.9534C74.818 30.7533 74.6984 30.5231 74.6253 30.2756C74.5371 29.9879 74.4947 29.6875 74.4997 29.3858C74.4947 29.0859 74.5371 28.7871 74.6253 28.5012C74.6984 28.2584 74.818 28.0333 74.9772 27.839C75.124 27.6612 75.3078 27.5197 75.5151 27.4251C75.7316 27.3257 75.9666 27.2762 76.2037 27.2803V27.2906ZM66.8993 27.3682H69.1965V27.8028H67.412V29.0703H68.92V29.5152H67.412V30.9999H69.2568V31.4448H66.8993V27.3475V27.3682ZM71.0614 29.4376C71.0571 29.1352 71.103 28.8342 71.1971 28.5477C71.2779 28.3026 71.4043 28.0759 71.5691 27.8804C71.7265 27.6998 71.9204 27.5568 72.1371 27.4614C72.3589 27.3612 72.5987 27.3101 72.8409 27.3113C73.0614 27.3061 73.2796 27.3595 73.4742 27.4665C73.6453 27.5533 73.7988 27.6726 73.9266 27.8183L73.6451 28.1494C73.5447 28.0357 73.4256 27.9412 73.2933 27.87C73.1539 27.8005 73.0008 27.7651 72.8459 27.7666C72.6719 27.7678 72.5003 27.8084 72.3432 27.8856C72.1876 27.9627 72.0517 28.076 71.9461 28.2167C71.8298 28.371 71.7428 28.5465 71.6897 28.734C71.6271 28.9576 71.5966 29.1894 71.5993 29.422C71.5962 29.6581 71.6267 29.8934 71.6897 30.1204C71.7398 30.3072 71.8233 30.4827 71.9361 30.6378C72.0396 30.7797 72.1739 30.8948 72.3281 30.974C72.4846 31.053 72.6566 31.0937 72.8308 31.093C73.0053 31.0968 73.1781 31.0559 73.3335 30.974C73.489 30.8877 73.6285 30.7738 73.7457 30.6378L74.0322 30.9534C73.8862 31.1365 73.7048 31.2862 73.4994 31.3931C73.2885 31.5 73.0558 31.5532 72.8208 31.5483C72.5821 31.5518 72.3455 31.5024 72.1271 31.4034C71.9152 31.3095 71.7263 31.1681 71.5741 30.9896C71.411 30.7937 71.2863 30.567 71.2072 30.3222C71.1107 30.0221 71.0665 29.7069 71.0765 29.391L71.0614 29.4376ZM63.1846 27.3682H64.1899C64.3362 27.3675 64.4824 27.3779 64.6272 27.3993V27.8494C64.4731 27.8079 64.314 27.7888 64.1547 27.7924H63.7073V31.0413H64.1547C64.3143 31.0434 64.4733 31.0225 64.6272 30.9792V31.4293C64.4913 31.4548 64.3532 31.467 64.215 31.4655H63.2097L63.1846 27.3682Z" fill="#B3C1D5"/>
<path d="M71.299 11.3933V10.9639C71.5252 10.9058 71.7276 10.7754 71.8771 10.5914C72.128 10.2427 72.2509 9.81388 72.2239 9.38086C72.2526 8.95244 72.1294 8.52785 71.8771 8.18582C71.7247 8.00945 71.5226 7.88647 71.299 7.83404V7.34256C71.666 7.38741 72.0069 7.56097 72.2641 7.83404C72.6157 8.24938 72.7961 8.78944 72.7668 9.33946C72.7722 9.63435 72.7298 9.92811 72.6411 10.2086C72.5714 10.4508 72.4494 10.6736 72.2842 10.8604C72.0257 11.1362 71.6869 11.3178 71.3191 11.3778L71.299 11.3933ZM73.5811 7.33222H75.8783V7.76678H74.0939V9.05494H75.6019V9.49985H74.0939V10.9639H75.9387V11.4088H73.5811V7.33222ZM64.5331 9.26704C64.7369 9.26398 64.935 9.19723 65.1011 9.07563C65.1838 9.00289 65.2488 8.91114 65.2907 8.80779C65.3326 8.70444 65.3503 8.5924 65.3424 8.4807C65.3537 8.37244 65.3374 8.26301 65.2951 8.16321C65.2528 8.06341 65.1859 7.9767 65.1011 7.91163C64.9281 7.80925 64.7326 7.75405 64.5331 7.75126V7.34256C64.7023 7.34048 64.8711 7.35958 65.0357 7.39946C65.1945 7.43398 65.3449 7.50082 65.4781 7.59605C65.5996 7.69015 65.6978 7.81246 65.7646 7.95301C65.8367 8.11524 65.8728 8.29197 65.8702 8.47035C65.885 8.74843 65.797 9.02199 65.6239 9.23601C65.454 9.43487 65.2268 9.57264 64.9754 9.62918L65.9808 11.4192H65.4027L64.5431 9.86715V9.26187L64.5331 9.26704ZM71.299 7.34256V7.79264C71.1448 7.75123 70.9858 7.73208 70.8265 7.73574H70.3791V10.9846H70.8265C70.9861 10.9867 71.1451 10.9658 71.299 10.9225V11.3726C71.1627 11.3956 71.0249 11.4077 70.8868 11.4088H69.8815V7.34256H70.8868C71.0331 7.34187 71.1793 7.35224 71.3242 7.3736L71.299 7.34256ZM66.6996 7.31152H68.9918V7.74608H67.2073V9.03424H68.7153V9.47915H67.2073V10.9639H69.0521V11.4088H66.6996V7.31152ZM63.7137 9.25152H64.5281V9.8568L64.4275 9.6809H63.7137V11.414H63.2111V7.34256H64.5381V7.7616H63.7238L63.7137 9.25152Z" fill="#B3C1D5"/>
</svg>
