<svg width="185" height="36" viewBox="0 0 185 36" fill="none" xmlns="http://www.w3.org/2000/svg">
<path d="M106.164 25.8392V13.1735H103.286V21.7133L95.7054 13.1735H92.8268V25.8392H95.7054V17.2035L103.286 25.8392H106.164ZM166.518 18.6428C167.094 18.6428 168.149 18.4509 168.149 17.2035C168.149 16.3399 167.574 15.7642 166.518 15.7642H161.145V18.6428H166.518ZM171.412 25.8392H167.861L164.407 21.2335H160.953V25.8392H158.074V13.1735H166.326C169.205 13.1735 170.836 14.7087 170.836 17.2035C170.836 18.7387 169.972 20.4659 167.765 20.9456L171.412 25.8392ZM120.461 10.0071C126.026 10.0071 129.385 12.9816 129.385 18.0671C129.385 21.7133 127.082 25.8392 120.461 25.8392H113.457V10.0071H120.461ZM116.335 12.5978V23.1525H120.461C122.668 23.1525 126.506 22.4809 126.506 17.7792C126.506 14.4209 124.299 12.5018 120.461 12.5018L116.335 12.5978ZM175.73 23.2485V20.8497H182.446V18.163H175.73V15.7642H184.461V13.1735H172.851V25.8392H184.461V23.2485H175.73ZM147.424 23.2485V20.8497H154.14V18.163H147.424V15.7642H156.155V13.1735H144.449V25.8392H156.059V23.2485H147.424ZM133.894 23.2485V20.8497H140.611V18.163H133.894V15.7642H142.626V13.1735H130.92V25.8392H142.53V23.2485H133.894ZM87.4535 13.1735V18.259H79.8733V13.1735H76.9947V25.8392H79.8733V20.8497H87.4535V25.8392H90.332V13.1735H87.4535ZM67.7833 23.5363C66.0561 23.5363 63.1776 22.9606 63.1776 19.4104C63.1776 16.8197 64.8088 15.3804 67.7833 15.3804C70.6618 15.3804 72.389 16.8197 72.389 19.4104C72.293 22.9606 69.4145 23.5363 67.7833 23.5363ZM60.2031 19.6023C60.2031 22.5768 62.1221 26.1271 67.6873 26.1271C73.2526 26.1271 75.1716 22.5768 75.1716 19.6023C75.1716 15.3804 72.389 12.8857 67.6873 12.8857C62.9857 12.8857 60.2031 15.3804 60.2031 19.6023ZM47.4414 22.7687C47.4414 22.7687 49.0726 23.3444 50.9916 23.3444C53.0066 23.3444 54.1581 23.0566 54.9257 22.3849C55.5014 21.8092 55.6933 20.8497 55.6933 19.4104V9.91113H58.5719V19.7942C58.5719 24.208 56.4609 26.0311 51.4714 26.0311C49.0726 26.0311 47.4414 25.6473 47.4414 25.6473" fill="#B3C1D5"/>
<path d="M35.2124 4.38715C30.4137 1.98781 24.8477 0.647461 18.9952 0.647461C13.1426 0.647461 7.57658 1.99293 2.68582 4.38715C0.956664 8.51564 0 13.1199 0 17.9186C0 22.7172 0.96178 27.2243 2.68582 31.45C7.58169 33.8493 13.1426 35.1897 18.9952 35.1897C24.8477 35.1897 30.4137 33.8442 35.3045 31.45C37.0337 27.2294 37.9903 22.7172 37.9903 17.9186C37.8982 13.1199 36.9416 8.61284 35.2124 4.38715ZM34.0972 30.3859C29.4929 32.5908 24.3105 33.7419 18.9389 33.7419C13.5672 33.7419 8.37977 32.4936 3.7755 30.3859C2.24074 26.549 1.37616 22.3284 1.37616 17.9135C1.37616 13.4985 2.24074 9.2779 3.7755 5.44101C8.37977 3.32817 13.5621 2.08501 18.9338 2.08501C24.4026 2.08501 29.585 3.33328 34.092 5.44101C35.6268 9.2779 36.4914 13.4985 36.4914 17.9135C36.4914 22.3284 35.6319 26.5439 34.0972 30.3859Z" fill="#B3C1D5"/>
<path d="M33.2313 6.1115C28.8163 4.09586 23.9255 3.04199 18.9324 3.04199C13.9394 3.04199 9.04862 4.09586 4.63364 6.1115C3.19609 9.94839 2.42871 13.8825 2.42871 17.9138C2.42871 22.0423 3.19609 25.9712 4.63364 29.716C9.04862 31.7317 13.9394 32.7856 18.9324 32.7856C23.9255 32.7856 28.9135 31.7317 33.3233 29.6188C32.4588 27.8897 30.924 26.3549 30.8268 26.2628C30.6324 26.2628 26.6983 25.0146 25.358 24.3444C24.3041 23.7663 23.153 22.426 23.0558 22.2316C22.002 22.2316 20.943 22.2316 19.7919 22.3288C18.4464 22.5232 16.9117 22.7124 15.4741 22.5232C14.6096 22.426 13.8422 22.1395 12.9776 21.853C11.6321 21.3721 10.389 20.9884 8.84911 20.9884C9.13559 21.3721 10.3839 23.7714 12.2051 24.3444C12.2051 24.3444 12.7832 24.4416 12.9725 24.6309L13.8371 26.0684L13.7399 26.1656C13.6427 26.1656 9.61137 24.15 6.92554 20.794L6.82834 20.1238C8.4603 19.5457 10.1843 19.4536 11.8163 19.2592H12.2972C12.4916 17.2436 13.0646 15.5196 13.8319 13.9797C13.9291 13.7853 13.6375 13.6932 13.4483 13.8825C12.7781 13.6881 11.1461 13.4016 11.1461 13.4016L10.9517 12.7314C12.5837 12.1533 14.5993 11.5803 15.9397 11.2939C16.1341 11.0074 16.2262 10.7158 16.2262 10.5265C16.2262 10.3321 16.129 10.1428 16.0318 10.0456C15.3616 9.27822 12.8651 9.5647 10.1792 10.6237V10.4293C10.5629 10.0456 11.2331 9.5647 11.9084 9.27822C11.714 8.51084 10.6601 8.12715 10.6601 8.12715L10.7573 8.02995C11.6219 8.12715 12.3893 8.51084 12.6758 8.99173C13.4431 8.79732 13.7296 8.70524 14.3077 8.70524C14.2105 7.45697 13.0595 6.59239 13.0595 6.59239L13.1567 6.49519C14.3077 6.87888 15.0751 7.64626 15.3616 8.60804C15.8425 8.60804 16.0318 8.60804 16.5127 8.80244C16.6099 8.41875 16.7071 8.03506 16.7071 7.74858C16.7071 6.50031 15.9397 5.63573 15.9397 5.63573L16.1341 5.53853C17.4796 6.30591 17.8632 7.55417 17.8632 8.60804C17.8632 9.6619 17.5768 10.5265 17.4795 10.813C17.4795 10.813 19.1115 10.5265 20.2626 10.3321L20.3598 10.4293C20.2626 10.5265 19.7817 11.1967 18.3441 11.964L17.1931 11.8668C17.0959 12.1533 16.4257 14.2662 16.4257 15.8009C16.4257 16.379 16.6201 16.8548 16.9066 17.1464C17.4847 17.7245 18.4413 17.7245 19.1115 17.7245C23.6237 17.5301 25.6342 18.2054 25.9258 18.3026C25.9258 18.2054 26.023 18.0161 26.023 17.6324C26.023 16.9622 25.7365 15.8112 24.6776 14.5629H24.7748C24.872 14.5629 27.5578 16.0004 27.8443 18.3026L26.7034 18.7732C27.7573 19.9243 28.141 21.2698 28.4326 22.3236C28.627 23.091 28.8163 23.8584 29.2 24.1449C29.6809 24.5286 31.6965 25.5824 31.6965 25.5824C31.6965 25.5824 32.1774 26.3498 33.6149 28.7491C34.8632 25.1987 35.4362 21.6483 35.4362 17.9087C35.4362 13.8825 34.6688 9.85119 33.2313 6.1115Z" fill="#B3C1D5"/>
</svg>
