<svg width="226" height="30" viewBox="0 0 226 30" fill="none" xmlns="http://www.w3.org/2000/svg">
<path d="M210.998 27.3081C204.179 27.3081 198.609 21.7857 198.609 14.9187C198.609 8.09968 204.131 2.52923 210.998 2.52923C217.817 2.52923 223.388 8.05165 223.388 14.9187C223.388 21.7377 217.865 27.3081 210.998 27.3081ZM210.998 0.608383C203.123 0.608383 196.688 6.99519 196.688 14.9187C196.688 22.8422 203.075 29.229 210.998 29.229C218.874 29.229 225.309 22.8422 225.309 14.9187C225.309 6.99519 218.922 0.608383 210.998 0.608383Z" fill="#B3C1D5"/>
<path d="M200.963 13.7181C200.05 15.3028 200.578 17.3677 202.211 18.2801C202.98 18.7123 203.796 18.8083 204.612 18.6162C204.084 19.1925 203.748 20.0088 203.748 20.8732C203.748 22.698 205.237 24.2347 207.061 24.2347C208.886 24.2347 210.423 22.746 210.423 20.9212V16.8875C210.135 16.7914 209.895 16.6474 209.654 16.4553C208.934 16.7914 208.358 17.3197 208.022 18.04L206.197 17.7519L206.869 16.0231C207.638 16.0711 208.406 15.879 209.078 15.3988C209.03 15.1107 209.03 14.8226 209.078 14.5344L205.573 12.5176C203.94 11.5571 201.875 12.1334 200.963 13.7181Z" fill="#B3C1D5"/>
<path d="M214.985 24.1868C216.81 24.1868 218.298 22.6982 218.298 20.8254C218.298 19.961 217.962 19.1927 217.434 18.5684C218.202 18.7605 219.067 18.6644 219.835 18.2322C221.42 17.3198 221.996 15.2549 221.084 13.6702C220.171 12.0855 218.106 11.5093 216.522 12.4217L213.016 14.4386C213.064 14.7267 213.064 15.0148 213.016 15.3029C213.64 15.7832 214.409 15.9752 215.225 15.9272L215.897 17.656L214.072 17.9441C213.736 17.2238 213.16 16.6956 212.44 16.3594C212.2 16.5515 211.96 16.6956 211.671 16.7916V20.8254C211.623 22.6982 213.112 24.1868 214.985 24.1868Z" fill="#B3C1D5"/>
<path d="M217.05 6.85009C216.137 5.26539 214.073 4.73716 212.488 5.64956C211.719 6.08175 211.239 6.75404 210.999 7.52238C210.759 6.75404 210.231 6.08175 209.511 5.64956C207.926 4.73716 205.861 5.26539 204.949 6.85009C204.036 8.43478 204.564 10.4997 206.149 11.4121L209.655 13.429C209.847 13.2369 210.135 13.0928 210.423 12.9968C210.519 12.2285 210.327 11.4121 209.847 10.7878L210.999 9.34719L212.152 10.7878C211.719 11.4121 211.527 12.2285 211.575 12.9968C211.864 13.0928 212.104 13.2369 212.344 13.429L215.849 11.4121C217.434 10.4517 218.01 8.43478 217.05 6.85009Z" fill="#B3C1D5"/>
<path d="M210.997 16.1188C210.325 16.1188 209.797 15.5906 209.797 14.9183C209.797 14.246 210.325 13.7178 210.997 13.7178C211.669 13.7178 212.198 14.246 212.198 14.9183C212.198 15.5906 211.669 16.1188 210.997 16.1188Z" fill="#B3C1D5"/>
<path d="M40.618 10.1649C40.3299 10.1649 40.0418 10.405 39.9938 10.6932L38.6492 19.1929C38.6492 19.337 38.6492 19.433 38.7452 19.5291C38.8413 19.6251 38.9373 19.6731 39.0814 19.6731H49.7901C50.0782 19.6731 50.3663 19.433 50.4144 19.1449L51.7589 10.6451C51.7589 10.5011 51.7589 10.405 51.6629 10.309C51.5669 10.213 51.4708 10.1649 51.3268 10.1649H40.618ZM37.8328 22.4103C37.1605 22.4103 36.5363 22.1222 36.1521 21.642C35.7199 21.1618 35.5758 20.4895 35.6719 19.8172L37.2085 9.97285C37.4487 8.58024 38.7452 7.42773 40.1378 7.42773H52.4793C53.1516 7.42773 53.7758 7.71586 54.16 8.19607C54.5922 8.67628 54.7363 9.34858 54.6402 10.0209L53.1035 19.8652C52.8634 21.2578 51.5669 22.4103 50.1742 22.4103H37.8328Z" fill="#B3C1D5"/>
<path d="M27.4132 22.4103L29.286 10.6451C29.286 10.5011 29.286 10.405 29.19 10.309C29.094 10.213 28.9979 10.1649 28.8538 10.1649H19.3937C19.1056 10.1649 18.8174 10.405 18.7694 10.6932L16.9446 22.4103H14.0633L15.9362 10.6451C15.9362 10.5011 15.9362 10.405 15.8401 10.309C15.7441 10.213 15.648 10.1649 15.504 10.1649H5.94778C5.65965 10.1649 5.37152 10.405 5.3235 10.6932L3.4987 22.4103H0.617432L2.5863 9.97285C2.8264 8.58024 4.12297 7.42773 5.51559 7.42773H30.0544C30.7267 7.42773 31.3509 7.71586 31.7351 8.19607C32.1673 8.67628 32.3114 9.34858 32.2153 10.0209L30.2465 22.4103H27.4132Z" fill="#B3C1D5"/>
<path d="M128.162 22.4103L130.035 10.6451C130.035 10.5011 130.035 10.405 129.939 10.309C129.842 10.213 129.746 10.1649 129.602 10.1649H120.094C119.806 10.1649 119.518 10.405 119.47 10.6932L117.645 22.4103H114.764L116.637 10.6451C116.637 10.5011 116.637 10.405 116.541 10.309C116.445 10.213 116.349 10.1649 116.204 10.1649H106.696C106.408 10.1649 106.12 10.405 106.072 10.6932L104.247 22.4103H101.366L103.335 9.97285C103.575 8.58024 104.872 7.42773 106.264 7.42773H130.803C131.475 7.42773 132.099 7.71586 132.484 8.19607C132.916 8.67628 133.06 9.34858 132.964 10.0209L130.995 22.4103H128.162Z" fill="#B3C1D5"/>
<path d="M94.4499 13.8626C94.738 13.8626 95.0262 13.6225 95.0742 13.3343L95.5064 10.6932C95.5064 10.5491 95.5064 10.4531 95.4103 10.357C95.3143 10.261 95.2183 10.213 95.0742 10.213H84.3655C84.0774 10.213 83.7892 10.4531 83.7412 10.7412L83.261 13.8626H94.4499ZM81.5803 22.4103C80.908 22.4103 80.2837 22.1222 79.8995 21.642C79.4673 21.1618 79.3233 20.4895 79.4193 19.8172L80.956 9.97285C81.1961 8.58024 82.4927 7.42773 83.8853 7.42773H96.2267C96.899 7.42773 97.5233 7.71586 97.9074 8.19607C98.3396 8.67628 98.4837 9.34858 98.3876 10.0209L97.7634 14.0066C97.5233 15.3992 96.2267 16.5517 94.8341 16.5517H82.7328L82.3006 19.1929C82.3006 19.337 82.3006 19.433 82.3966 19.5291C82.4927 19.6251 82.5887 19.6731 82.7328 19.6731H96.2747L95.8425 22.4103H81.5803Z" fill="#B3C1D5"/>
<path d="M172.965 22.4103L174.79 10.6451C174.79 10.5011 174.79 10.405 174.694 10.309C174.598 10.213 174.502 10.1649 174.358 10.1649H163.649C163.361 10.1649 163.073 10.405 163.025 10.6932L161.152 22.4103H158.271L160.239 9.97285C160.479 8.58024 161.776 7.42773 163.169 7.42773H175.51C176.182 7.42773 176.807 7.71586 177.239 8.19607C177.671 8.67628 177.815 9.34858 177.719 10.0209L175.798 22.4103H172.965Z" fill="#B3C1D5"/>
<path d="M183.339 22.41C182.666 22.41 182.042 22.1219 181.658 21.6417C181.226 21.1615 181.082 20.4892 181.178 19.8169L183.819 3.34564H186.7L186.028 7.42744H190.11L189.822 9.34828C189.774 9.78047 189.341 10.1646 188.861 10.1646H185.596L184.155 19.1926C184.155 19.3367 184.155 19.4327 184.251 19.5288C184.347 19.6248 184.443 19.6728 184.587 19.6728H189.053L188.621 22.41H183.339Z" fill="#B3C1D5"/>
<path d="M74.1366 10.3079C74.1366 10.3079 74.0405 11.2203 73.4643 11.6524L63.812 19.1918C63.3318 19.5759 62.8996 19.72 62.5154 19.72H61.411C61.2669 19.72 61.1709 19.672 61.0748 19.5759C60.9788 19.4799 60.9788 19.3358 60.9788 19.2398L62.8516 7.47461H59.9703L58.0015 19.8641C57.9054 20.5364 58.0495 21.2086 58.4817 21.6889C58.9139 22.1691 59.4901 22.4572 60.1624 22.4572H62.2753C63.1877 22.4572 63.86 22.4092 64.8685 21.6408L75.9614 12.997C76.6337 12.5168 76.7777 11.4123 76.7777 11.4123L77.402 7.47461H74.5207L74.1366 10.3079Z" fill="#B3C1D5"/>
<path d="M151.404 13.8626C151.692 13.8626 151.98 13.6225 152.028 13.3343L152.46 10.6932C152.46 10.5491 152.46 10.4531 152.364 10.357C152.268 10.261 152.172 10.213 152.028 10.213H141.32C141.031 10.213 140.743 10.4531 140.695 10.7412L140.215 13.8626H151.404ZM138.582 22.4103C137.91 22.4103 137.286 22.1222 136.854 21.642C136.421 21.1618 136.277 20.4895 136.373 19.8172L137.91 9.97285C138.15 8.58024 139.447 7.42773 140.839 7.42773H153.181C153.853 7.42773 154.477 7.71586 154.862 8.19607C155.294 8.67628 155.438 9.34858 155.342 10.0209L154.717 14.0066C154.477 15.3992 153.181 16.5517 151.788 16.5517H139.687L139.255 19.1929C139.255 19.337 139.255 19.433 139.351 19.5291C139.447 19.6251 139.543 19.6731 139.687 19.6731H153.229L152.797 22.4103H138.582Z" fill="#B3C1D5"/>
</svg>
