<svg width="201" height="32" viewBox="0 0 201 32" fill="none" xmlns="http://www.w3.org/2000/svg">
<path fill-rule="evenodd" clip-rule="evenodd" d="M49.9169 15.2372H54.5455C57.0124 15.2372 58.7587 14.8542 59.7844 14.0882C60.8166 13.3221 61.3294 12.0497 61.3294 10.284C61.3294 8.71299 60.901 7.525 60.0441 6.71353C59.1872 5.90206 57.9277 5.49308 56.2594 5.49308H49.9169V15.2372ZM46.3335 18.1325V2.74707H56.2334C59.0573 2.74707 61.232 3.40923 62.7511 4.72706C64.2702 6.04488 65.0297 7.921 65.0297 10.3489C65.0297 11.7901 64.7311 13.0819 64.1404 14.231C63.5496 15.3865 62.7122 16.2889 61.6346 16.951C60.9724 17.3665 60.1349 17.6716 59.1417 17.8599C58.1485 18.0481 56.8696 18.139 55.3181 18.139H46.3335V18.1325ZM67.7108 18.1325V5.52554H81.2331V7.75221H70.8074V10.5047H76.8837V12.673H70.8074V15.776H81.3889V18.1325H67.7108ZM83.0703 18.1325V5.52554H85.1801L95.8785 13.8934V5.52554H98.6635V18.1325H96.5342L85.8682 9.63482V18.1325H83.0703ZM109.044 7.78467V18.1325H105.973V7.78467H99.8839V5.52554H115.14V7.78467H109.044ZM112.264 18.1325L119.749 5.52554H122.702L130.298 18.1325H126.851L125.26 15.367H116.925L115.334 18.1325H112.264ZM118.23 13.069H124.007L121.073 7.81713L118.23 13.069ZM130.681 18.1325V5.52554H133.777V15.776H143.664V18.1325H130.681Z" fill="#B3C1D5"/>
<path fill-rule="evenodd" clip-rule="evenodd" d="M149.078 2.74707V15.2372H159.276V2.74707H162.847V14.4971C162.847 15.8994 162.581 16.8601 162.061 17.373C161.535 17.8858 160.529 18.1325 159.03 18.1325H149.312C147.825 18.1325 146.819 17.8793 146.286 17.373C145.754 16.8666 145.494 15.9058 145.494 14.4971V2.74707H149.078ZM167.936 18.1325V2.74707H170.384L181.218 11.816C181.588 12.1147 181.913 12.4003 182.192 12.673C182.478 12.9391 182.731 13.2118 182.965 13.4909C182.906 12.6275 182.874 12.0173 182.848 11.6602C182.828 11.3032 182.815 11.024 182.815 10.8293V2.74707H186.029V18.1325H183.581L172.279 8.62859C172.007 8.38191 171.766 8.16768 171.565 7.97293C171.364 7.77818 171.169 7.58342 171 7.37569C171.046 7.84959 171.085 8.29752 171.111 8.71948C171.137 9.14144 171.15 9.50498 171.15 9.81659V18.126H167.936V18.1325ZM191.112 18.1325V2.74707H194.695V18.1325H191.112Z" fill="#B3C1D5"/>
<path fill-rule="evenodd" clip-rule="evenodd" d="M47.3976 24.1897V25.9036C47.3976 25.9685 47.4042 26.0399 47.4301 26.1243H46.6187C46.6381 26.0594 46.6446 25.9815 46.6446 25.9036V21.8397C46.6446 21.7618 46.6316 21.6904 46.6187 21.619H48.0598C48.4104 21.619 48.709 21.6904 48.9492 21.8332C49.3257 22.0475 49.5074 22.398 49.5074 22.8654C49.5074 23.3848 49.2802 23.7613 48.8258 23.9885C48.5597 24.1183 48.2416 24.1897 47.8716 24.1897H47.3976ZM47.3976 23.8392H47.8002C48.0209 23.8392 48.1961 23.8002 48.3324 23.7223C48.4623 23.6444 48.5597 23.5276 48.6376 23.3783C48.709 23.229 48.7479 23.0602 48.7479 22.8719C48.7479 22.5863 48.67 22.3591 48.5142 22.1968C48.3584 22.0345 48.1377 21.9501 47.8651 21.9501H47.4041V23.8392H47.3976ZM52.3768 26.1243H50.0917C50.1112 26.0594 50.1177 25.988 50.1177 25.9165V21.8462C50.1177 21.7683 50.1047 21.6969 50.0917 21.632H50.9032C50.8837 21.6969 50.8772 21.7683 50.8772 21.8462V25.7672H52.1496C52.247 25.7672 52.3249 25.7543 52.3768 25.7348V26.1243ZM53.5518 24.7091L53.1169 25.936C53.0974 25.988 53.0909 26.0529 53.0909 26.1243H52.6625C52.7014 26.0594 52.7338 25.9944 52.7533 25.936L54.227 21.7878C54.2464 21.7294 54.2594 21.6774 54.2594 21.6255H54.9151C54.9151 21.6709 54.9281 21.7164 54.9475 21.7748L56.4666 25.936C56.4861 25.988 56.525 26.0529 56.577 26.1243H55.7006C55.7006 26.0659 55.6876 26.0009 55.6617 25.936L55.2332 24.7091H53.5518ZM53.6687 24.3845H55.1034L54.3763 22.3526L53.6687 24.3845ZM57.3949 22.4564V25.9101C57.3949 25.988 57.4079 26.0594 57.4274 26.1308H57.0249C57.0444 26.0659 57.0574 25.9944 57.0574 25.9101V21.8462C57.0574 21.7618 57.0444 21.6904 57.0249 21.632H57.739C57.752 21.6774 57.7715 21.7229 57.8169 21.7878L60.2773 25.2219V21.8462C60.2773 21.7683 60.2643 21.6969 60.2448 21.632H60.6473C60.6278 21.6839 60.6214 21.7488 60.6149 21.8462V25.9295C60.6149 26.0204 60.6278 26.0853 60.6473 26.1308H59.9916C59.9787 26.0918 59.9462 26.0399 59.8878 25.962L57.3949 22.4564ZM63.6075 21.5606C64.2697 21.5606 64.7955 21.7424 65.185 22.1059C65.6135 22.5149 65.8212 23.0991 65.8212 23.8716C65.8212 24.6312 65.6135 25.2154 65.211 25.6179C64.828 26.0009 64.2827 26.1892 63.5945 26.1892C62.8675 26.1892 62.3222 25.9815 61.9522 25.5725C61.5756 25.157 61.3874 24.5728 61.3874 23.8262C61.3874 23.3523 61.4782 22.9433 61.6535 22.5928C62.0106 21.9176 62.6597 21.5671 63.6075 21.5606ZM63.614 21.9046C63.1142 21.9046 62.7506 22.0929 62.5169 22.4629C62.3027 22.807 62.1988 23.2614 62.1988 23.8327C62.1988 25.1635 62.6727 25.8322 63.6205 25.8322C64.0944 25.8322 64.4515 25.6439 64.6982 25.2739C64.815 25.0986 64.8994 24.8973 64.9513 24.6766C65.0033 24.4559 65.0292 24.1897 65.0292 23.8781C65.0227 22.5798 64.5553 21.9241 63.614 21.9046ZM66.2821 25.8451L66.4314 25.3128C66.5483 25.4167 66.6522 25.4946 66.7301 25.553C66.9638 25.7153 67.2234 25.7997 67.4961 25.7997C67.7752 25.7997 67.9895 25.7218 68.1453 25.553C68.2881 25.4037 68.3595 25.2284 68.3595 25.0207C68.3595 24.774 68.2556 24.5728 68.0544 24.4234C67.9635 24.352 67.7363 24.2287 67.3727 24.0599C66.9962 23.8846 66.7301 23.7029 66.5743 23.5276C66.3925 23.3198 66.3016 23.0797 66.3016 22.807C66.3016 22.5603 66.373 22.3396 66.5093 22.1383C66.7755 21.7553 67.204 21.5606 67.7947 21.5606C68.1323 21.5606 68.4829 21.6385 68.8464 21.8008L68.7036 22.2812C68.3595 22.041 68.0414 21.9241 67.7493 21.9241C67.5156 21.9241 67.3338 21.9955 67.191 22.1383C67.0742 22.2617 67.0092 22.4175 67.0092 22.5928C67.0092 22.7745 67.0677 22.9238 67.191 23.0407C67.3143 23.1576 67.561 23.3004 67.944 23.4757C68.3595 23.6639 68.6386 23.8522 68.7879 24.0339C68.9697 24.2612 69.0671 24.5273 69.0671 24.8259C69.0671 25.0791 68.9957 25.3193 68.8658 25.54C68.5997 25.9815 68.1453 26.2022 67.5156 26.2022C67.2884 26.2022 67.0806 26.1762 66.8989 26.1243C66.7236 26.0594 66.5158 25.9685 66.2821 25.8451ZM73.5919 21.5606C74.254 21.5606 74.7863 21.7424 75.1693 22.1059C75.5978 22.5149 75.8055 23.0991 75.8055 23.8716C75.8055 24.6312 75.6043 25.2154 75.1953 25.6179C74.8123 26.0009 74.267 26.1892 73.5724 26.1892C72.8518 26.1892 72.3 25.9815 71.93 25.5725C71.5534 25.157 71.3652 24.5728 71.3652 23.8262C71.3652 23.3523 71.4561 22.9433 71.6313 22.5928C71.9949 21.9176 72.6441 21.5671 73.5919 21.5606ZM73.5984 21.9046C73.105 21.9046 72.7349 22.0929 72.5012 22.4629C72.2935 22.807 72.1832 23.2614 72.1832 23.8327C72.1832 25.1635 72.657 25.8322 73.6113 25.8322C74.0852 25.8322 74.4423 25.6439 74.689 25.2739C74.8058 25.0986 74.8902 24.8973 74.9422 24.6766C74.9941 24.4559 75.02 24.1897 75.02 23.8781C75.0136 22.5798 74.5397 21.9241 73.5984 21.9046ZM76.5586 21.6255H77.9478C78.4607 21.6255 78.8956 21.7294 79.2591 21.9371C79.5902 22.1254 79.8369 22.385 79.9992 22.7161C80.168 23.0537 80.2524 23.4237 80.2524 23.8327C80.2524 24.4559 80.0836 24.9688 79.7525 25.3777C79.3435 25.8711 78.8112 26.1243 78.1491 26.1243H76.5651C76.5846 26.0594 76.591 25.988 76.591 25.9036V21.8332C76.591 21.7553 76.5781 21.6839 76.5586 21.6255ZM77.3441 25.7348H77.9543C78.3568 25.7348 78.6749 25.6179 78.9151 25.3777C79.0774 25.2154 79.2007 25.0207 79.2786 24.8C79.389 24.4949 79.4409 24.1703 79.4409 23.8262C79.4409 23.1251 79.2202 22.6122 78.7723 22.2877C78.5061 22.0929 78.188 21.9955 77.8309 21.9955H77.3376V25.7348H77.3441ZM83.0114 21.5606C83.6735 21.5606 84.2059 21.7424 84.5889 22.1059C85.0173 22.5149 85.2251 23.0991 85.2251 23.8716C85.2251 24.6312 85.0238 25.2154 84.6148 25.6179C84.2318 26.0009 83.6865 26.1892 82.9919 26.1892C82.2713 26.1892 81.7195 25.9815 81.3495 25.5725C80.973 25.157 80.7782 24.5728 80.7782 23.8262C80.7782 23.3523 80.8691 22.9433 81.0509 22.5928C81.4144 21.9176 82.0636 21.5671 83.0114 21.5606ZM83.0114 21.9046C82.5115 21.9046 82.148 22.0929 81.9143 22.4629C81.7001 22.807 81.5962 23.2614 81.5962 23.8327C81.5962 25.1635 82.0701 25.8322 83.0243 25.8322C83.4982 25.8322 83.8618 25.6439 84.102 25.2739C84.2188 25.0986 84.3032 24.8973 84.3552 24.6766C84.4071 24.4559 84.4331 24.1897 84.4331 23.8781C84.4266 22.5798 83.9592 21.9241 83.0114 21.9046ZM86.3352 22.4564V25.9101C86.3352 25.988 86.3481 26.0594 86.3676 26.1308H85.9651C85.9846 26.0659 85.9976 25.9944 85.9976 25.9101V21.8462C85.9976 21.7618 85.9846 21.6904 85.9651 21.632H86.6857C86.6922 21.6774 86.7182 21.7229 86.7636 21.7878L89.2175 25.2219V21.8462C89.2175 21.7683 89.2045 21.6969 89.185 21.632H89.5875C89.5681 21.6839 89.5615 21.7488 89.555 21.8462V25.9295C89.555 26.0204 89.5681 26.0853 89.5875 26.1308H88.9319C88.9189 26.0918 88.8864 26.0399 88.828 25.962L86.3352 22.4564ZM89.9186 21.6255H93.1839V22.0345C93.0736 22.015 92.9827 22.002 92.9048 22.002H91.9375V25.9036C91.9375 25.9815 91.9505 26.0529 91.9635 26.1243H91.152C91.1715 26.0594 91.178 25.988 91.178 25.9036V22.002H90.2042C90.1068 22.002 90.016 22.015 89.9121 22.0345V21.6255H89.9186ZM95.4171 21.5606C96.0793 21.5606 96.6116 21.7424 96.9946 22.1059C97.4231 22.5149 97.6308 23.0991 97.6308 23.8716C97.6308 24.6312 97.4295 25.2154 97.0205 25.6179C96.6375 26.0009 96.0922 26.1892 95.4041 26.1892C94.677 26.1892 94.1317 25.9815 93.7617 25.5725C93.3852 25.157 93.1969 24.5728 93.1969 23.8262C93.1969 23.3523 93.2878 22.9433 93.4631 22.5928C93.8266 21.9176 94.4758 21.5671 95.4171 21.5606ZM95.4236 21.9046C94.9237 21.9046 94.5602 22.0929 94.3265 22.4629C94.1188 22.807 94.0084 23.2614 94.0084 23.8327C94.0084 25.1635 94.4823 25.8322 95.4366 25.8322C95.9105 25.8322 96.2675 25.6439 96.5142 25.2739C96.6311 25.0986 96.7155 24.8973 96.7674 24.6766C96.8193 24.4559 96.8453 24.1897 96.8453 23.8781C96.8388 22.5798 96.3649 21.9241 95.4236 21.9046ZM100.675 26.1243H98.3903C98.4098 26.0594 98.4163 25.988 98.4163 25.9165V21.8462C98.4163 21.7683 98.4033 21.6969 98.3903 21.632H99.2018C99.1823 21.6969 99.1758 21.7683 99.1758 21.8462V25.7672H100.448C100.546 25.7672 100.617 25.7543 100.675 25.7348V26.1243ZM102.986 21.5606C103.649 21.5606 104.181 21.7424 104.564 22.1059C104.992 22.5149 105.2 23.0991 105.2 23.8716C105.2 24.6312 104.999 25.2154 104.59 25.6179C104.207 26.0009 103.662 26.1892 102.967 26.1892C102.246 26.1892 101.695 25.9815 101.325 25.5725C100.948 25.157 100.76 24.5728 100.76 23.8262C100.76 23.3523 100.851 22.9433 101.026 22.5928C101.396 21.9176 102.045 21.5671 102.986 21.5606ZM102.993 21.9046C102.493 21.9046 102.13 22.0929 101.896 22.4629C101.682 22.807 101.578 23.2614 101.578 23.8327C101.578 25.1635 102.052 25.8322 102.999 25.8322C103.473 25.8322 103.837 25.6439 104.077 25.2739C104.194 25.0986 104.278 24.8973 104.33 24.6766C104.382 24.4559 104.408 24.1897 104.408 23.8781C104.408 22.5798 103.934 21.9241 102.993 21.9046ZM102.603 21.3658L103.064 20.3271H103.655L102.948 21.3658H102.603ZM109.316 21.8008V22.3591C108.9 22.0799 108.492 21.9371 108.089 21.9371C107.648 21.9371 107.297 22.0864 107.024 22.385C106.856 22.5733 106.739 22.7745 106.68 23.0018C106.602 23.2679 106.563 23.573 106.563 23.8976C106.563 24.5728 106.713 25.0726 107.018 25.4037C107.271 25.6828 107.609 25.8192 108.024 25.8192C108.271 25.8192 108.498 25.7543 108.719 25.6309V23.8781C108.719 23.7937 108.706 23.7223 108.693 23.6574H109.478C109.465 23.7288 109.452 23.8002 109.452 23.8781V25.6049C109.452 25.7088 109.472 25.7932 109.498 25.8711C109.095 26.0074 108.803 26.0918 108.615 26.1308C108.433 26.1632 108.206 26.1892 107.946 26.1892C107.479 26.1892 107.096 26.1048 106.797 25.936C106.44 25.7348 106.174 25.4427 105.999 25.0531C105.843 24.7156 105.765 24.3261 105.765 23.8846C105.765 23.0991 106.012 22.4954 106.492 22.0669C106.888 21.7229 107.407 21.5476 108.057 21.5476C108.446 21.5606 108.868 21.6385 109.316 21.8008ZM110.368 21.6255H111.179C111.166 21.6774 111.153 21.7488 111.153 21.8397V25.9101C111.153 26.0009 111.166 26.0723 111.179 26.1308H110.368C110.387 26.0659 110.394 25.9944 110.394 25.9101V21.8397C110.394 21.7618 110.387 21.6904 110.368 21.6255ZM115.327 21.7553V22.3656C115.126 22.2033 114.951 22.0864 114.795 22.028C114.639 21.9631 114.457 21.9306 114.256 21.9306C113.763 21.9306 113.393 22.1189 113.133 22.4889C112.886 22.8459 112.763 23.3004 112.763 23.8587C112.763 24.4559 112.906 24.9298 113.185 25.2804C113.458 25.6309 113.821 25.8062 114.282 25.8062C114.483 25.8062 114.665 25.7672 114.814 25.7023C114.97 25.6309 115.139 25.5011 115.327 25.3258V25.9165C115.113 26.0204 114.918 26.0853 114.75 26.1243C114.581 26.1632 114.379 26.1827 114.152 26.1827C113.458 26.1827 112.925 25.988 112.555 25.6049C112.159 25.1895 111.958 24.5987 111.958 23.8327C111.958 23.3458 112.042 22.9433 112.205 22.6317C112.581 21.9111 113.263 21.5476 114.263 21.5476C114.639 21.5606 114.996 21.6255 115.327 21.7553ZM117.846 21.5606C118.508 21.5606 119.041 21.7424 119.424 22.1059C119.852 22.5149 120.06 23.0991 120.06 23.8716C120.06 24.6312 119.859 25.2154 119.45 25.6179C119.067 26.0009 118.521 26.1892 117.833 26.1892C117.106 26.1892 116.561 25.9815 116.191 25.5725C115.814 25.157 115.626 24.5728 115.626 23.8262C115.626 23.3523 115.717 22.9433 115.892 22.5928C116.256 21.9176 116.905 21.5671 117.846 21.5606ZM117.853 21.9046C117.353 21.9046 116.989 22.0929 116.755 22.4629C116.541 22.807 116.437 23.2614 116.437 23.8327C116.437 25.1635 116.918 25.8322 117.866 25.8322C118.339 25.8322 118.697 25.6439 118.943 25.2739C119.06 25.0986 119.144 24.8973 119.196 24.6766C119.248 24.4559 119.274 24.1897 119.274 23.8781C119.268 22.5798 118.794 21.9241 117.853 21.9046ZM120.527 25.8451L120.676 25.3128C120.8 25.4167 120.897 25.4946 120.975 25.553C121.215 25.7153 121.468 25.7997 121.741 25.7997C122.02 25.7997 122.235 25.7218 122.397 25.553C122.54 25.4037 122.605 25.2284 122.605 25.0207C122.605 24.774 122.501 24.5728 122.299 24.4234C122.209 24.352 121.981 24.2287 121.618 24.0599C121.241 23.8846 120.982 23.7029 120.826 23.5276C120.644 23.3198 120.553 23.0797 120.553 22.807C120.553 22.5603 120.618 22.3396 120.761 22.1383C121.027 21.7553 121.455 21.5606 122.053 21.5606C122.39 21.5606 122.741 21.6385 123.098 21.8008L122.955 22.2812C122.611 22.041 122.293 21.9241 122.001 21.9241C121.774 21.9241 121.585 21.9955 121.443 22.1383C121.326 22.2617 121.261 22.4175 121.261 22.5928C121.261 22.7745 121.319 22.9238 121.443 23.0407C121.566 23.1576 121.813 23.3004 122.196 23.4757C122.611 23.6639 122.89 23.8522 123.039 24.0339C123.228 24.2612 123.319 24.5273 123.319 24.8259C123.319 25.0791 123.254 25.3193 123.117 25.54C122.851 25.9815 122.397 26.2022 121.774 26.2022C121.546 26.2022 121.339 26.1762 121.157 26.1243C120.969 26.0594 120.761 25.9685 120.527 25.8451Z" fill="#B3C1D5"/>
<path fill-rule="evenodd" clip-rule="evenodd" d="M13.3609 18.9641C16.0874 22.7423 21.93 21.4244 28.5126 18.8926C31.4014 17.7826 33.0049 16.3024 35.9067 18.2175C36.8935 18.8667 37.6984 19.8275 38.2892 21.1648C33.7774 23.0733 29.2721 24.9884 24.7604 26.897C18.5153 27.8253 14.9903 24.7807 13.3609 18.9641Z" fill="#B3C1D5"/>
<path fill-rule="evenodd" clip-rule="evenodd" d="M6.69446 2.22754C13.7185 2.25351 20.5024 2.27298 27.5265 2.29895C29.831 3.48694 31.1359 6.05767 31.6227 8.97247C26.5202 8.04415 22.2746 8.557 18.029 8.95948C14.8611 9.2581 13.4458 9.85534 10.7193 8.11555C8.32386 6.5835 6.83728 4.68142 6.69446 2.22754Z" fill="#B3C1D5"/>
<path fill-rule="evenodd" clip-rule="evenodd" d="M0.533447 8.09616C4.59728 7.7456 6.81745 9.14782 8.60268 10.8227C11.8031 13.8154 11.0111 14.1984 12.0952 18.2817C13.6273 24.0659 16.1721 28.7464 23.9297 27.7597C19.4179 28.9152 16.6719 32.4013 10.4009 31.2263C1.31243 28.7789 3.82476 15.8084 0.533447 8.09616Z" fill="#B3C1D5"/>
<path fill-rule="evenodd" clip-rule="evenodd" d="M28.6681 2.29297C30.2066 2.3449 31.8296 2.29946 33.4331 2.49421C37.3346 2.96811 37.8669 6.03221 38.4836 9.99218C38.8796 12.5434 39.2367 15.3219 40.1325 17.6265C37.5553 17.8082 35.5948 16.7566 34.264 14.452C32.3944 10.4012 33.6667 5.21426 28.6681 2.29297Z" fill="#B3C1D5"/>
<path fill-rule="evenodd" clip-rule="evenodd" d="M197.383 3.51304V1.27988H198.331C198.571 1.27988 198.74 1.29935 198.851 1.3383C198.961 1.37725 199.045 1.44866 199.11 1.55253C199.175 1.6564 199.208 1.77325 199.208 1.90309C199.208 2.07187 199.156 2.2082 199.058 2.31856C198.961 2.42892 198.812 2.49383 198.617 2.52629C198.714 2.58472 198.792 2.64314 198.864 2.71455C198.929 2.78596 199.013 2.90282 199.123 3.07809L199.396 3.51304H198.857L198.533 3.02616C198.416 2.85088 198.338 2.74052 198.292 2.70157C198.253 2.65613 198.208 2.62367 198.156 2.61069C198.111 2.59121 198.033 2.58472 197.929 2.58472H197.838V3.51953H197.383V3.51304ZM198.273 0.371033C198.831 0.371033 199.337 0.598244 199.707 0.961782C200.078 1.32532 200.298 1.83168 200.298 2.38997C200.298 2.94826 200.071 3.4611 199.707 3.82464C199.344 4.19467 198.838 4.41539 198.273 4.41539C197.715 4.41539 197.208 4.18818 196.845 3.82464C196.475 3.4611 196.254 2.95475 196.254 2.38997C196.254 1.83168 196.481 1.32532 196.845 0.961782C197.208 0.598244 197.715 0.371033 198.273 0.371033ZM199.448 1.22794C199.149 0.929323 198.734 0.741062 198.279 0.741062C197.825 0.741062 197.409 0.929323 197.104 1.22794C196.806 1.52656 196.617 1.94204 196.617 2.39646C196.617 2.85737 196.806 3.26635 197.104 3.56497C197.403 3.87009 197.818 4.05185 198.279 4.05185C198.74 4.05185 199.149 3.87009 199.448 3.56497C199.746 3.26635 199.935 2.85088 199.935 2.39646C199.935 1.94204 199.746 1.52656 199.448 1.22794ZM197.831 2.22118H198.169C198.383 2.22118 198.519 2.21469 198.571 2.19521C198.623 2.17574 198.662 2.14328 198.695 2.09784C198.721 2.0524 198.74 1.99397 198.74 1.92905C198.74 1.85115 198.721 1.79273 198.682 1.74728C198.643 1.70184 198.584 1.66938 198.513 1.6564C198.474 1.64991 198.364 1.64991 198.182 1.64991H197.831V2.22118Z" fill="#B3C1D5"/>
</svg>
