<svg width="206" height="30" viewBox="0 0 206 30" fill="none" xmlns="http://www.w3.org/2000/svg">
<path d="M33.0139 24.7177L26.7162 21.0769C26.6178 21.0031 26.4948 20.9539 26.3964 20.9047C26.3718 20.8801 26.3472 20.8801 26.3226 20.8555C22.4112 18.3955 19.9757 14.1396 19.8773 9.49019C19.8773 9.36719 19.8773 9.26879 19.8773 9.14579H19.8527V1.93793C19.8527 1.12612 19.1885 0.461914 18.3767 0.461914H16.1627C15.3509 0.461914 14.6867 1.12612 14.6867 1.93793L14.7113 9.21959C14.7113 9.31799 14.7113 9.39179 14.7113 9.49019C14.5883 14.2626 11.9807 18.6415 7.82323 21.0277L1.52558 24.6685C0.812172 25.0867 0.56617 25.9723 0.984373 26.6857L2.09138 28.6046C2.50959 29.318 3.39519 29.564 4.1086 29.1458L10.4063 25.5049C14.6621 23.0695 19.9019 23.0941 24.1332 25.5295L30.4308 29.1704C31.1442 29.5886 32.0298 29.3426 32.448 28.6292L33.5551 26.7103C33.6289 26.5627 33.7027 26.4151 33.7273 26.2675V26.2429C33.8503 25.6525 33.5797 25.0375 33.0139 24.7177Z" fill="#B3C1D5"/>
<path d="M52.6449 18.7893L52.6203 18.7647C52.2513 18.2727 51.5379 18.1743 51.0459 18.5433C50.0373 19.3551 48.7827 19.8225 47.4789 19.8225C45.9537 19.8225 44.7975 19.3305 43.9857 18.3219C43.1739 17.3379 42.7311 16.0833 42.7557 14.7794C42.7311 13.5494 43.1493 12.344 43.9365 11.3846C44.7237 10.4498 45.9045 9.9824 47.4789 9.9824C48.2415 9.9824 49.0041 10.1546 49.6929 10.4744C49.9635 10.5974 50.2341 10.7204 50.4801 10.8434C51.1689 11.2616 52.0791 11.0402 52.4973 10.3514L52.8909 9.73639C53.3091 9.04759 53.1123 8.13738 52.4235 7.69458C51.8823 7.35017 51.3165 7.05497 50.7015 6.83357C49.5945 6.43997 48.4383 6.24316 47.2821 6.24316C44.7237 6.24316 42.608 7.05497 40.9844 8.70319C39.3362 10.3514 38.5244 12.3932 38.5244 14.8532C38.5244 17.3871 39.3362 19.4781 40.9352 21.1017C42.5343 22.7253 44.6499 23.5617 47.3067 23.5617C49.4961 23.6109 51.6117 22.8729 53.2845 21.4707C53.7273 21.1017 53.8258 20.4375 53.5059 19.9701L52.6449 18.7893Z" fill="#B3C1D5"/>
<path d="M66.4216 17.436C66.2248 17.0916 66.028 16.7472 65.782 16.4274V16.3782C66.5938 15.96 67.2334 15.2958 67.627 14.484C68.0698 13.6475 68.2912 12.7373 68.2912 11.8025C68.3158 10.7201 68.0452 9.66231 67.4794 8.75211C66.9382 7.9157 66.151 7.27609 65.2161 6.93169C64.5273 6.66109 63.4449 6.53809 61.9689 6.53809H57.2457C56.6307 6.53809 56.1387 7.03009 56.1387 7.6451V22.1592C56.1387 22.7742 56.6307 23.2662 57.2457 23.2662H59.1153C59.7303 23.2662 60.2223 22.7742 60.2223 22.1592V17.6328H62.1411L64.7979 22.6758C64.9948 23.0448 65.3638 23.2662 65.782 23.2662H67.7746C67.9714 23.2662 68.1436 23.217 68.3158 23.1186C68.857 22.8234 69.0538 22.1346 68.7586 21.5934L66.4216 17.436ZM63.5679 13.5983C63.1251 13.9674 62.5839 14.1642 61.9935 14.1396H60.2223V10.0559H61.5999C62.1165 10.0313 62.6577 10.1297 63.1497 10.3019C63.8139 10.5725 64.1337 11.1629 64.1337 12.0731C64.1583 12.6389 63.9615 13.1801 63.5679 13.5983Z" fill="#B3C1D5"/>
<path d="M86.7158 6.5625H84.0836C83.6162 6.5625 83.198 6.8577 83.0258 7.30051L80.861 13.6228C80.615 14.3362 80.3198 15.271 80.0246 16.378H79.9754L79.139 13.6228L76.9741 7.30051C76.8265 6.8577 76.3837 6.5625 75.9163 6.5625H73.2841C72.7183 6.5625 72.2263 7.0053 72.1771 7.57111L70.9717 22.0852C70.9717 22.1098 70.9717 22.159 70.9717 22.1836C70.9717 22.7986 71.4883 23.2906 72.1033 23.2906H73.9729C74.5633 23.2906 75.0553 22.8232 75.0799 22.2574L75.5227 15.763C75.5965 14.8282 75.5965 13.8934 75.5227 12.9586H75.5719L76.5067 15.763L77.9827 19.8712C78.1303 20.314 78.5732 20.6092 79.0406 20.6092H80.984C81.4514 20.6092 81.8696 20.314 82.0418 19.8712L83.5178 15.763C83.7638 15.0496 84.0836 14.1148 84.4526 12.9586H84.5018L84.4772 13.3768C84.4526 13.6474 84.4526 14.041 84.4526 14.5084C84.4526 14.9758 84.4772 15.394 84.5018 15.763L84.9446 22.2574C84.9938 22.8478 85.4612 23.2906 86.0516 23.2906H87.8966C87.9212 23.2906 87.9458 23.2906 87.995 23.2906C88.61 23.2414 89.0774 22.7002 89.0282 22.0852L87.8474 7.57111C87.7736 7.0053 87.2816 6.5625 86.7158 6.5625Z" fill="#B3C1D5"/>
<path d="M100.344 3.61035H99.2125C98.5975 3.61035 98.1055 4.10236 98.1055 4.71736V25.1109C98.1055 25.7259 98.5975 26.2425 99.2125 26.2425H100.344C100.959 26.2425 101.451 25.7505 101.451 25.1355V4.71736C101.476 4.10236 100.959 3.61035 100.344 3.61035Z" fill="#B3C1D5"/>
<path d="M121.009 14.533V14.4838C121.624 14.1148 122.116 13.5982 122.436 12.9832C122.781 12.3436 122.953 11.6547 122.953 10.9413C122.953 9.53913 122.436 8.45672 121.403 7.69411C120.37 6.9315 118.992 6.5625 117.27 6.5625H112.227C111.612 6.5625 111.12 7.0545 111.12 7.66951V22.1836C111.12 22.7986 111.612 23.2906 112.227 23.2906H117.27C119.115 23.2906 120.616 22.897 121.821 22.0852C123.027 21.2734 123.617 20.0188 123.617 18.3214C123.617 17.5096 123.396 16.6978 122.977 16.009C122.535 15.2956 121.821 14.7544 121.009 14.533ZM117.246 10.0557C117.664 10.0311 118.082 10.1787 118.402 10.4493C118.672 10.7199 118.795 11.0889 118.795 11.4825C118.82 11.8761 118.672 12.2698 118.426 12.5896C118.156 12.9094 117.738 13.057 117.319 13.0324H115.204V10.0557H117.246ZM118.968 19.2808C118.623 19.6252 118.156 19.7974 117.664 19.7728H115.204V16.3042H117.688C118.18 16.2796 118.648 16.4518 118.992 16.7962C119.287 17.1406 119.46 17.5834 119.435 18.0262C119.46 18.4936 119.287 18.9364 118.968 19.2808Z" fill="#B3C1D5"/>
<path d="M132.523 11.1868C131.982 11.3098 131.49 11.5558 131.071 11.8757C130.383 12.4169 129.866 13.1549 129.62 14.0159H129.571L129.62 13.2779V12.3677C129.62 11.7526 129.128 11.2606 128.513 11.2606H126.865C126.25 11.2606 125.758 11.7526 125.758 12.3677V22.1831C125.758 22.7981 126.25 23.3148 126.865 23.3148H128.685C129.3 23.3148 129.792 22.8227 129.792 22.2077V18.6161C129.817 17.4599 130.087 16.5743 130.653 15.9347C131.219 15.2951 132.031 14.9753 133.138 14.9753C133.581 14.9753 133.95 14.6063 133.95 14.1635V12.2693C133.95 12.1709 133.95 12.0971 133.925 11.9987C133.728 11.4082 133.113 11.0392 132.523 11.1868Z" fill="#B3C1D5"/>
<path d="M146.372 11.2363H144.576C143.961 11.2363 143.469 11.7283 143.469 12.3433V16.5746C143.493 17.411 143.272 18.2474 142.805 18.9608C142.386 19.5758 141.673 19.9448 140.91 19.9202C140.049 19.9202 139.631 19.379 139.631 18.3212V12.3433C139.631 11.7283 139.139 11.2363 138.524 11.2363H136.704C136.089 11.2363 135.597 11.7283 135.597 12.3433V19.0346C135.597 20.6336 135.966 21.7898 136.728 22.5032C137.491 23.2166 138.549 23.561 139.853 23.561C140.64 23.561 141.402 23.3642 142.091 22.9952C142.731 22.6508 143.272 22.1342 143.616 21.47H143.666L143.616 22.208C143.616 22.7984 144.084 23.2658 144.674 23.2658H146.396C147.011 23.2658 147.503 22.7738 147.503 22.1588V12.3433C147.503 11.7283 146.987 11.2363 146.372 11.2363Z" fill="#B3C1D5"/>
<path d="M161.205 6.5625H159.36C158.77 6.5625 158.278 7.0545 158.253 7.64491V11.3841C158.253 11.5809 158.253 11.7777 158.278 11.9253H158.228C157.589 11.2857 156.556 10.9659 155.08 10.9659C153.554 10.9167 152.103 11.5563 151.119 12.688C150.086 13.8442 149.594 15.3694 149.594 17.239C149.594 19.1086 150.086 20.6584 151.07 21.8146C152.054 22.9708 153.382 23.5613 155.006 23.5613C156.556 23.5613 157.736 22.9708 158.499 21.8146H158.548L158.524 22.2574C158.524 22.282 158.524 22.3066 158.524 22.3312C158.548 22.8724 158.991 23.3152 159.532 23.3152H161.205C161.82 23.3152 162.312 22.8232 162.312 22.2082V7.66951C162.312 7.0545 161.82 6.5625 161.205 6.5625ZM157.712 19.4776C157.318 19.945 156.728 20.2156 156.113 20.2156C155.424 20.2402 154.76 19.945 154.317 19.4038C153.85 18.7888 153.628 18.0262 153.653 17.239C153.653 16.3534 153.874 15.64 154.342 15.1234C154.76 14.6314 155.375 14.3608 156.039 14.3608C156.728 14.3362 157.392 14.656 157.786 15.2218C158.204 15.8122 158.425 16.5256 158.401 17.239C158.376 18.2476 158.155 18.9856 157.712 19.4776Z" fill="#B3C1D5"/>
<path d="M176.039 6.5625H174.194C173.604 6.5625 173.112 7.0545 173.087 7.64491V11.3841C173.087 11.5563 173.087 11.7531 173.112 11.9253H173.062C172.423 11.2857 171.365 10.9659 169.914 10.9659C168.388 10.9167 166.937 11.5563 165.953 12.688C164.92 13.8442 164.428 15.3694 164.428 17.239C164.428 19.1086 164.92 20.6584 165.904 21.8146C166.888 22.9708 168.216 23.5613 169.84 23.5613C171.39 23.5613 172.57 22.9708 173.333 21.8146H173.382L173.358 22.2574C173.358 22.282 173.358 22.3066 173.358 22.3312C173.358 22.8724 173.825 23.3152 174.366 23.3152H176.039C176.654 23.3152 177.146 22.8232 177.146 22.2082V7.66951C177.146 7.0545 176.654 6.5625 176.039 6.5625ZM172.521 19.4776C172.128 19.945 171.537 20.2156 170.922 20.2156C170.233 20.2402 169.569 19.945 169.126 19.4038C168.659 18.7888 168.438 18.0262 168.462 17.239C168.462 16.3534 168.684 15.64 169.151 15.1234C169.569 14.6314 170.184 14.3608 170.848 14.3608C171.537 14.3362 172.201 14.656 172.595 15.2218C173.013 15.8122 173.235 16.5256 173.21 17.239C173.21 18.2476 172.989 18.9856 172.521 19.4776Z" fill="#B3C1D5"/>
<path d="M185.437 10.9414C183.543 10.9414 182.017 11.5318 180.886 12.7372C179.754 13.9426 179.164 15.4432 179.164 17.2391C179.139 18.9119 179.779 20.5109 180.935 21.6917C182.116 22.9463 183.739 23.5613 185.781 23.5613C186.741 23.5613 187.675 23.3891 188.586 23.0939C189.102 22.9217 189.619 22.7003 190.086 22.4051C190.603 22.1099 190.775 21.4457 190.48 20.9291L189.988 19.9943C189.693 19.4531 189.028 19.2563 188.487 19.5269C187.774 19.9205 186.962 20.1419 186.126 20.1665C185.486 20.1911 184.846 19.9943 184.305 19.6253C183.789 19.2317 183.42 18.6659 183.321 18.0263H189.889C190.48 18.0263 190.972 17.5589 190.996 16.9685C190.996 16.8947 190.996 16.8455 190.996 16.7717C190.996 15.0496 190.504 13.6474 189.52 12.565C188.536 11.4826 187.183 10.9414 185.437 10.9414ZM183.42 15.7138C183.69 14.5084 184.33 13.918 185.363 13.918C185.83 13.8934 186.273 14.0902 186.568 14.4346C186.888 14.8036 187.036 15.2464 187.011 15.7138H183.42Z" fill="#B3C1D5"/>
<path d="M200.86 10.9424C199.113 10.9424 197.834 11.6312 197.022 13.0334H196.973L197.022 12.32C197.022 11.4836 196.358 11.213 195.792 11.213H194.267C193.652 11.213 193.16 11.705 193.16 12.32V22.1355C193.16 22.7505 193.677 23.2425 194.292 23.2425H196.112C196.727 23.2425 197.219 22.7259 197.219 22.1355V17.8304C197.195 17.0186 197.416 16.2068 197.883 15.5426C198.351 14.9276 199.064 14.5832 199.851 14.6324C200.737 14.6324 201.18 15.1736 201.18 16.2314V22.1847C201.18 22.7997 201.672 23.2917 202.287 23.2917H204.107C204.722 23.2917 205.214 22.7997 205.214 22.1847V15.4688C205.19 12.4676 203.738 10.9424 200.86 10.9424Z" fill="#B3C1D5"/>
</svg>
