<svg width="95" height="59" viewBox="0 0 95 59" fill="none" xmlns="http://www.w3.org/2000/svg">
<path fill-rule="evenodd" clip-rule="evenodd" d="M14.39 22.6592C22.1713 22.6592 28.4646 28.9524 28.4646 36.7338C28.4646 44.5151 22.1713 50.8083 14.39 50.8083C6.60869 50.8083 0.31543 44.5151 0.31543 36.7338C0.31543 28.9524 6.60869 22.6592 14.39 22.6592Z" fill="#B3C1D5"/>
<path fill-rule="evenodd" clip-rule="evenodd" d="M46.6322 22.6602C54.4135 22.6602 60.7068 28.9534 60.7068 36.7347C60.7068 44.5161 54.4135 50.8093 46.6322 50.8093C38.8509 50.8093 32.5576 44.5161 32.5576 36.7347C32.5576 28.9534 38.8509 22.6602 46.6322 22.6602Z" fill="#B3C1D5"/>
<path fill-rule="evenodd" clip-rule="evenodd" d="M86.0958 7.06738C83.1507 7.06738 80.7635 9.45448 80.7635 12.3996C80.7635 15.3447 83.1507 17.7318 86.0958 17.7318C89.0409 17.7318 91.428 15.3447 91.428 12.3996C91.428 9.45448 89.0409 7.06738 86.0958 7.06738Z" fill="#B3C1D5"/>
<path fill-rule="evenodd" clip-rule="evenodd" d="M74.1612 22.1641C71.2161 22.1641 68.829 24.5512 68.829 27.4963C68.829 30.4414 71.2161 32.8285 74.1612 32.8285C77.1063 32.8285 79.4934 30.4414 79.4934 27.4963C79.4934 24.5512 77.1063 22.1641 74.1612 22.1641Z" fill="#B3C1D5"/>
<path fill-rule="evenodd" clip-rule="evenodd" d="M24 0.742188H28.6812V50.7782H24V0.742188Z" fill="#B3C1D5"/>
<path fill-rule="evenodd" clip-rule="evenodd" d="M64.7684 22.7227H69.0156V50.7788H64.7684V22.7227Z" fill="#B3C1D5"/>
<path fill-rule="evenodd" clip-rule="evenodd" d="M83.9266 22.7227H88.1428V50.7788H83.9266V22.7227Z" fill="#B3C1D5"/>
<path d="M6.51622 57.9095H5.24516L5.05916 58.4985H3.91211L5.27617 54.8713H6.48522L7.84927 58.4985H6.67122L6.51622 57.9095ZM6.29921 57.1344L5.89619 55.8324L5.49317 57.1344H6.29921ZM14.7316 54.8713H15.8476V57.5994H17.5837V58.4985H14.7006L14.7316 54.8713ZM24.652 54.8713H25.768V58.4985H24.652V54.8713ZM33.0533 54.8713H34.5414L35.0994 57.0724L35.6574 54.8713H37.1145V58.4985H36.1845V55.7394L35.4714 58.4985H34.6344L33.9214 55.7394V58.4985H32.9913L33.0533 54.8713ZM44.3378 54.8713H47.3449V55.6464H45.4538V56.2354H47.1899V56.9794H45.4538V57.6924H47.3759V58.4985H44.3068L44.3378 54.8713ZM54.5062 54.8713H55.5603L56.9243 56.8864V54.8713H57.9784V58.4985H56.9243L55.5603 56.5144V58.4985H54.5062V54.8713ZM64.9847 54.8713H68.3948V55.7704H67.2478V58.4985H66.1317V55.7704H64.9847V54.8713ZM75.0601 56.7004C75.0601 56.1114 75.2151 55.6464 75.5561 55.3053C75.8971 54.9643 76.3311 54.8093 76.9202 54.8093C77.5092 54.8093 77.9742 54.9643 78.3152 55.3053C78.6562 55.6153 78.8112 56.0804 78.8112 56.6694C78.8112 57.1034 78.7492 57.4444 78.5942 57.7234C78.4392 58.0025 78.2532 58.2195 77.9742 58.3435C77.6952 58.4985 77.3542 58.5605 76.9511 58.5605C76.5481 58.5605 76.2071 58.4985 75.9281 58.3745C75.6491 58.2505 75.4321 58.0335 75.2771 57.7544C75.1531 57.4754 75.0601 57.1034 75.0601 56.7004ZM76.2071 56.7004C76.2071 57.0724 76.2691 57.3204 76.4241 57.4754C76.5481 57.6304 76.7341 57.7234 76.9822 57.7234C77.2302 57.7234 77.4162 57.6304 77.5402 57.4754C77.6642 57.3204 77.7262 57.0414 77.7262 56.6384C77.7262 56.2974 77.6642 56.0494 77.5092 55.8944C77.3852 55.7394 77.1992 55.6464 76.9511 55.6464C76.7341 55.6464 76.5481 55.7394 76.3931 55.8944C76.2691 56.0494 76.2071 56.3284 76.2071 56.7004ZM85.7245 57.2894L86.7786 57.2274C86.8096 57.4134 86.8406 57.5374 86.9336 57.6304C87.0576 57.7854 87.2126 57.8474 87.4296 57.8474C87.5846 57.8474 87.7086 57.8164 87.8016 57.7234C87.8946 57.6614 87.9256 57.5684 87.9256 57.4754C87.9256 57.3824 87.8946 57.2894 87.8016 57.2274C87.7086 57.1654 87.5226 57.0724 87.2126 57.0104C86.7166 56.8864 86.3755 56.7624 86.1585 56.5764C85.9415 56.3904 85.8485 56.1734 85.8485 55.8634C85.8485 55.6774 85.9105 55.4913 86.0035 55.3363C86.0965 55.1813 86.2825 55.0263 86.4995 54.9333C86.7166 54.8403 87.0266 54.7783 87.3986 54.7783C87.8636 54.7783 88.2046 54.8713 88.4526 55.0263C88.7006 55.2123 88.8556 55.4603 88.8867 55.8634L87.8326 55.9254C87.8016 55.7704 87.7396 55.6464 87.6466 55.5844C87.5536 55.5224 87.4296 55.4603 87.2746 55.4603C87.1506 55.4603 87.0576 55.4913 86.9646 55.5534C86.9026 55.6154 86.8716 55.6774 86.8716 55.7704C86.8716 55.8324 86.9026 55.8944 86.9646 55.9254C87.0266 55.9874 87.1506 56.0184 87.3366 56.0494C87.8326 56.1424 88.1736 56.2664 88.3906 56.3594C88.6076 56.4524 88.7626 56.6074 88.8556 56.7624C88.9486 56.9174 89.0107 57.1034 89.0107 57.2894C89.0107 57.5064 88.9486 57.7234 88.8246 57.9404C88.7006 58.1265 88.5146 58.2815 88.2976 58.3745C88.0806 58.4675 87.7706 58.5295 87.4296 58.5295C86.8096 58.5295 86.3755 58.4055 86.1585 58.1885C85.9105 57.9715 85.7555 57.6614 85.7245 57.2894Z" fill="#B3C1D5"/>
<path d="M91.429 47.4605V48.3285H91.801C92.018 48.3285 92.1731 48.2975 92.2971 48.2355C92.3901 48.1735 92.4521 48.0495 92.4521 47.9255C92.4521 47.7705 92.3901 47.6775 92.2971 47.5845C92.2041 47.5225 92.018 47.4915 91.801 47.4915L91.429 47.4605ZM90.84 47.0885H91.894C92.2661 47.0885 92.5761 47.1505 92.7621 47.2745C92.9481 47.3985 93.0411 47.5845 93.0411 47.8325C93.0411 48.0185 92.9791 48.2045 92.8861 48.3285C92.7931 48.4525 92.6381 48.5455 92.4211 48.5765L93.0411 49.8166H92.3901L91.832 48.6695H91.398V49.8166H90.809L90.84 47.0885ZM91.832 46.4374C91.553 46.4374 91.274 46.4994 91.057 46.5925C90.809 46.6855 90.592 46.8405 90.406 47.0265C90.22 47.2435 90.065 47.4605 89.941 47.7085C89.817 47.9565 89.786 48.2355 89.786 48.5145C89.786 48.7935 89.848 49.0416 89.941 49.2896C90.034 49.5376 90.189 49.7546 90.375 49.9716C90.561 50.1576 90.809 50.3126 91.057 50.4366C91.305 50.5296 91.553 50.5916 91.832 50.5916C92.111 50.5916 92.3901 50.5296 92.6381 50.4366C92.8861 50.3436 93.1341 50.1886 93.3201 49.9716C93.5061 49.7856 93.6611 49.5686 93.7851 49.3206C93.8781 49.0726 93.9401 48.8245 93.9401 48.5455C93.9401 48.2665 93.8781 47.9875 93.7851 47.7395C93.6921 47.4915 93.5371 47.2745 93.3511 47.0575C93.1341 46.8405 92.9171 46.7165 92.6691 46.5925C92.3591 46.4994 92.111 46.4374 91.832 46.4374ZM91.832 46.0654C92.1731 46.0654 92.4831 46.1274 92.7931 46.2514C93.1031 46.3754 93.3511 46.5614 93.5991 46.8095C93.8161 47.0265 94.0021 47.3055 94.1261 47.5845C94.2501 47.8635 94.3121 48.1735 94.3121 48.5145C94.3121 48.8555 94.2501 49.1656 94.1261 49.4446C94.0021 49.7236 93.8161 50.0026 93.5991 50.2196C93.3511 50.4366 93.1031 50.6226 92.7931 50.7466C92.4831 50.8706 92.2041 50.9326 91.863 50.9326C91.553 50.9326 91.243 50.8706 90.933 50.7466C90.623 50.6226 90.375 50.4366 90.127 50.1886C89.91 49.9406 89.7239 49.6926 89.5999 49.4136C89.4759 49.1346 89.4139 48.8245 89.4139 48.4835C89.4139 48.1735 89.4759 47.8635 89.5999 47.5535C89.7239 47.2435 89.91 46.9955 90.158 46.7475C90.375 46.5304 90.654 46.3444 90.933 46.2204C91.181 46.1274 91.491 46.0654 91.832 46.0654Z" fill="#B3C1D5"/>
</svg>
