<svg width="90" height="30" viewBox="0 0 90 30" fill="none" xmlns="http://www.w3.org/2000/svg">
<path d="M16.975 0.09375C16.7384 0.09375 16.5491 0.25886 16.4545 0.534044L11.3916 17.8156C11.3443 17.9257 11.2496 17.9807 11.155 17.9807C11.1077 17.9807 11.0604 17.9257 11.013 17.8156L5.99748 0.534044C5.95016 0.25886 5.71357 0.09375 5.47699 0.09375H0.556053C0.224836 0.09375 -0.0117467 0.42397 0.03557 0.809228C0.03557 0.864264 0.0355693 0.919302 0.082886 1.02938L7.98478 28.8229C8.03209 29.0981 8.26868 29.2632 8.50526 29.2632H13.8521C14.0886 29.2632 14.2779 29.0981 14.3725 28.8229L22.4637 0.58908C22.511 0.423969 22.4637 0.203823 22.2744 0.148786H22.1798L16.975 0.09375Z" fill="#B3C1D5"/>
<path d="M89.3235 0.0390625H83.8821C83.5509 0.0390625 83.3143 0.314247 83.267 0.699504V16.5501C83.267 16.6602 83.1724 16.7702 83.0777 16.7702C83.0304 16.7702 82.9831 16.7152 82.9358 16.7152L74.2768 4.00171C72.5734 1.52506 69.971 0.0941005 67.274 0.0941005H65.9964C65.6652 0.0941005 65.4286 0.369285 65.4286 0.754542L65.3813 19.7422C65.3813 19.8523 65.2867 19.9073 65.2393 19.9073C65.192 19.9073 65.0974 19.8523 65.0974 19.7973L58.9462 0.534394C58.8516 0.25921 58.615 0.0941005 58.3784 0.0941005H52.3219C52.0853 0.0941005 51.8487 0.25921 51.7541 0.534394L45.0351 21.3933C44.9405 21.6685 44.7039 21.8336 44.4673 21.8336H30.7454C30.6508 21.8336 30.6035 21.7786 30.6035 21.6685C30.6035 21.6135 30.6035 21.5584 30.6508 21.5034L42.1961 10.496C44.1834 8.6248 45.3663 5.76289 45.3663 2.7909V0.699504C45.3663 0.314247 45.0824 0.0390625 44.7985 0.0390625H25.1621C24.9255 0.0390625 24.7362 0.204173 24.6416 0.42432L22.607 6.80859C22.5597 6.9737 22.6543 7.19384 22.7962 7.24888C22.8436 7.24888 22.8909 7.24888 22.8909 7.24888L35.9976 7.30392C36.0922 7.30392 36.1396 7.35895 36.1396 7.46903C36.1396 7.52406 36.1395 7.5791 36.0922 7.63414L24.3104 18.8616C22.2758 20.7879 21.1402 23.5948 21.0928 26.6218V28.438C21.0928 28.8233 21.3767 29.0985 21.6606 29.0985H48.8677C49.1043 29.0985 49.3409 28.9334 49.4356 28.6582L55.1136 11.3766C55.1609 11.2666 55.3028 11.1565 55.3975 11.2115C55.4448 11.2115 55.4921 11.2666 55.5394 11.3766L61.2174 28.6582C61.312 28.9334 61.5486 29.0985 61.7852 29.0985H71.3905C71.8164 29.0985 72.1003 28.7132 72.1476 28.2729V11.872C72.1476 11.7619 72.2422 11.7069 72.2895 11.7069C72.3368 11.7069 72.3842 11.7069 72.3842 11.7619L81.327 25.3009C83.0304 27.7776 85.6328 29.2636 88.3772 29.2636H89.3235C89.6548 29.2636 89.8913 28.9884 89.8913 28.6032V0.754542C89.9387 0.369285 89.6548 0.0390625 89.3235 0.0390625Z" fill="#B3C1D5"/>
</svg>
