<svg width="136" height="43" viewBox="0 0 136 43" fill="none" xmlns="http://www.w3.org/2000/svg">
<path d="M16.2198 38.2373C1.42075 29.5621 3.9723 8.12899 3.9723 8.12899C3.9723 8.12899 -9.29578 30.5827 16.2198 38.2373Z" fill="#B3C1D5"/>
<path d="M14.6906 0.984355C14.6906 0.984355 11.1184 1.49467 9.07713 2.51529C9.07713 2.51529 3.97403 23.9483 17.7524 36.1958C17.7524 36.1958 6.01527 23.438 14.6906 0.984355Z" fill="#B3C1D5"/>
<path d="M17.752 0.984355C17.752 0.984355 23.8757 0.984355 26.4273 3.53591C26.4273 3.53591 12.1386 29.0514 29.9994 42.3195C29.9994 42.3195 7.03545 35.6855 17.752 0.984355Z" fill="#B3C1D5"/>
<path d="M53.0621 8.92465L50.0819 21.7437C49.8778 22.6826 49.6737 23.642 49.4695 24.581C49.245 25.6016 49.0409 26.6631 48.7959 27.7245C48.2652 25.5608 47.7549 23.6012 47.265 21.7232L43.7132 8.92465H41.672L37.9978 21.7232C37.4058 23.9278 36.9363 25.8261 36.4872 27.6633L35.6912 24.0911C35.5074 23.3154 35.3441 22.5193 35.1604 21.7437L32.3027 8.92465H30.0981L35.385 30.7251H37.4262L41.6516 15.7628C41.8149 15.0688 41.9986 14.4156 42.1619 13.7828C42.3252 13.1908 42.4885 12.5581 42.6518 11.9253C42.7947 12.5172 42.9376 13.0888 43.0805 13.6399C43.2642 14.3339 43.4275 15.0076 43.6112 15.7628L47.7753 30.7047H49.8574L55.1238 8.90424L53.0621 8.92465Z" fill="#B3C1D5"/>
<path d="M57.6373 30.7458H59.6377V20.4783H69.2111V18.682H59.6377V10.7416H72.2934V8.92488H57.6373V30.7458Z" fill="#B3C1D5"/>
<path d="M75.9472 8.9248H73.9468V30.7457H88.2967V28.929H75.9472V8.9248Z" fill="#B3C1D5"/>
<path d="M98.7884 8.65918C92.6443 8.65918 88.521 13.1295 88.521 19.7635C88.521 26.4997 92.6443 31.0312 98.7884 31.0312C104.933 31.0312 109.035 26.4997 109.035 19.7635C109.015 13.1091 104.912 8.65918 98.7884 8.65918ZM106.953 19.7635C106.953 25.4586 103.892 28.8471 98.7884 28.8471C93.7262 28.8471 90.5826 25.3566 90.5826 19.7431C90.5826 14.1297 93.6445 10.8025 98.7884 10.8025C103.932 10.8025 106.933 14.1705 106.953 19.7635Z" fill="#B3C1D5"/>
<path d="M133.876 9.16979L130.875 21.9888C130.671 22.9278 130.467 23.8872 130.263 24.8261C130.038 25.8468 129.814 26.9082 129.589 27.9696C129.059 25.8263 128.548 23.8463 128.058 21.9684L124.507 9.16979H122.465L118.791 21.9684C118.199 24.1729 117.73 26.0713 117.281 27.9084C117.015 26.7041 116.75 25.4997 116.485 24.3158L115.974 21.9684L113.117 9.14938H110.932L116.199 30.9499H118.24L122.465 15.9875C122.629 15.2935 122.812 14.6403 122.976 14.0075C123.139 13.4156 123.302 12.8032 123.466 12.15C123.609 12.742 123.751 13.3135 123.894 13.8851C124.058 14.5791 124.241 15.2527 124.425 16.008L128.589 30.9703H130.671L135.938 9.16979H133.876Z" fill="#B3C1D5"/>
<path d="M30.1195 35.3184H30.6298L31.528 39.3805C31.6913 40.1153 31.8546 40.8706 32.0179 41.6258H32.0587C32.2424 40.8706 32.4261 40.1357 32.6098 39.3805L33.7733 35.3184H34.2836L35.4063 39.3805C35.6105 40.1153 35.7942 40.8706 35.9779 41.6258H36.0187C36.2024 40.8706 36.3249 40.1357 36.5086 39.3805L37.4476 35.3184H37.8966L36.2637 42.1565H35.7533L34.4469 37.4004C34.3245 36.8697 34.202 36.4002 34.0591 35.8491H34.0183C33.8958 36.4002 33.7529 36.8493 33.6304 37.4004L32.3036 42.1565H31.7933L30.1195 35.3184Z" fill="#B3C1D5"/>
<path d="M39.8762 39.6859C39.8762 38.0529 40.9377 37.0527 42.0399 37.0527C43.2034 37.0527 43.9383 37.8896 43.9383 39.3593C43.9383 39.4818 43.9383 39.6043 43.9179 39.7268H40.3049C40.3049 40.9923 41.0601 41.9109 42.1828 41.9109C42.6727 41.9109 43.1422 41.768 43.53 41.5026L43.7138 41.7884C43.2647 42.115 42.7136 42.2987 42.142 42.2783C40.8968 42.2783 39.8762 41.2985 39.8762 39.6859ZM43.53 39.3593C43.53 38.0734 42.9381 37.4202 42.0399 37.4202C41.1826 37.4202 40.4274 38.1346 40.3253 39.3593H43.53Z" fill="#B3C1D5"/>
<path d="M45.7756 40.9107C45.7756 39.8084 46.1839 39.0123 49.0008 39.3389C49.0008 38.5633 48.7967 37.4202 47.8169 37.4202C47.429 37.4202 47.0412 37.5222 46.6942 37.7059L46.4492 37.4202C46.8779 37.1752 47.3678 37.0527 47.8577 37.0527C49.0212 37.0527 49.4295 37.9101 49.4295 38.9511V42.1558H49.062L49.0212 41.5026H48.9804C48.4701 41.9109 47.8577 42.2783 47.2045 42.2783C46.4288 42.2783 45.7756 41.8497 45.7756 40.9107ZM49.0008 41.0944V39.6859C46.388 39.441 46.2043 40.0942 46.2043 40.9107C46.2043 41.6455 46.6942 41.9109 47.2862 41.9109C47.8781 41.9109 48.368 41.6251 49.0008 41.0944Z" fill="#B3C1D5"/>
<path d="M52.228 42.279V34.6855H52.6567V42.279H52.228Z" fill="#B3C1D5"/>
<path d="M54.7784 40.7889V37.5637H54.0027V37.2167L54.7988 37.1759L54.86 35.5225H55.2274V37.1759H56.6767V37.5637H55.2274V40.8297C55.2274 41.4625 55.3907 41.9116 56.0848 41.9116C56.3093 41.9116 56.5134 41.8503 56.7175 41.7483L56.8604 42.0544C56.6155 42.1973 56.3297 42.279 56.0439 42.279C55.0641 42.279 54.7784 41.687 54.7784 40.7889Z" fill="#B3C1D5"/>
<path d="M58.9016 34.6855H59.3915V36.8697L59.3711 37.9719C59.9835 37.4616 60.5754 37.0534 61.3715 37.0534C62.5554 37.0534 63.1066 37.6658 63.1066 38.9517V42.1565H62.6167V39.013C62.6167 37.9515 62.2288 37.4412 61.2899 37.4412C60.5958 37.4412 60.0855 37.7678 59.3915 38.4006V42.1565H58.9016V34.6855Z" fill="#B3C1D5"/>
<path d="M69.0455 35.3184H72.7401V35.7062H69.4741V38.4619H72.2502V38.8497H69.4945V42.1565H69.0455V35.3184Z" fill="#B3C1D5"/>
<path d="M76.9446 39.6859C76.9446 38.0325 77.9856 37.0527 79.1695 37.0527C80.3535 37.0527 81.3945 38.0121 81.3945 39.6859C81.3945 41.3598 80.3535 42.2987 79.1695 42.2987C77.9856 42.2987 76.9446 41.3189 76.9446 39.6859ZM80.9658 39.6859C80.9658 38.3591 80.1902 37.4406 79.1899 37.4406C78.1897 37.4406 77.4141 38.3591 77.4141 39.6859C77.4141 41.0128 78.1897 41.9109 79.1899 41.9109C80.1902 41.9109 80.9658 41.0128 80.9658 39.6859Z" fill="#B3C1D5"/>
<path d="M83.2122 37.1757H83.6612L84.5798 40.4213C84.7023 40.8703 84.8247 41.299 84.9268 41.7481H84.988C85.1105 41.299 85.233 40.8703 85.3555 40.4213L86.274 37.1553H86.8252L87.7233 40.4213C87.8458 40.8703 87.9682 41.299 88.0907 41.7481H88.1316C88.254 41.299 88.3765 40.8703 88.499 40.4213L89.3971 37.1553H89.8258L88.3765 42.1359H87.805L86.9272 39.0128C86.7843 38.5433 86.6823 38.0942 86.5598 37.5839H86.519C86.3965 38.0738 86.274 38.5433 86.1107 39.0332L85.2534 42.1359H84.7227L83.2122 37.1757Z" fill="#B3C1D5"/>
<path d="M96.6455 35.3184H97.0741L99.5032 42.1565H99.0337L98.2172 39.7887H95.5024L94.6859 42.1565H94.2368L96.6455 35.3184ZM95.6453 39.4009H98.0948L97.6457 38.0945C97.3599 37.278 97.1354 36.5635 96.87 35.7266H96.8292C96.5842 36.5635 96.3597 37.278 96.0739 38.0945L95.6453 39.4009Z" fill="#B3C1D5"/>
<path d="M101.156 39.6866C101.156 38.074 102.176 37.0534 103.36 37.0534C103.952 37.0534 104.361 37.2779 104.871 37.6658L104.85 36.7472V34.6855H105.279V42.1565H104.912L104.871 41.5033H104.83C104.422 41.9728 103.83 42.2586 103.197 42.279C101.972 42.279 101.156 41.3604 101.156 39.6866ZM104.85 41.0746V38.0944C104.32 37.6249 103.871 37.4412 103.381 37.4412C102.381 37.4412 101.605 38.421 101.605 39.6866C101.605 41.0134 102.197 41.9115 103.258 41.9115C103.83 41.8911 104.32 41.6054 104.85 41.0746Z" fill="#B3C1D5"/>
<path d="M107.279 37.1748H107.748L108.871 40.3183C109.034 40.7878 109.218 41.2981 109.381 41.7472H109.422C109.585 41.2981 109.769 40.7878 109.932 40.3183L111.055 37.1748H111.504L109.667 42.1554H109.177L107.279 37.1748Z" fill="#B3C1D5"/>
<path d="M113.036 35.5428C113.015 35.3386 113.178 35.1549 113.383 35.1345C113.587 35.1141 113.77 35.2774 113.791 35.4815C113.791 35.5019 113.791 35.5224 113.791 35.5428C113.811 35.7469 113.648 35.9306 113.444 35.951C113.24 35.9714 113.056 35.8081 113.036 35.604C113.036 35.5836 113.036 35.5632 113.036 35.5428ZM113.199 37.1758H113.628V42.1564H113.199V37.1758Z" fill="#B3C1D5"/>
<path d="M115.751 42.2996L115.812 41.9118C116.567 41.9118 116.751 41.9118 117.486 41.9118C118.282 41.9118 118.69 41.4423 118.69 40.9116C118.69 40.2788 118.037 39.993 117.466 39.7889C116.69 39.5235 115.914 39.2173 115.914 38.36C115.914 37.6456 116.465 37.0332 117.506 37.0332C118.017 37.0332 118.527 37.2169 118.915 37.5435L118.67 37.8089C118.323 37.5435 117.915 37.4006 117.486 37.4006C116.69 37.4006 116.343 37.8497 116.343 38.3192C116.343 38.8907 116.874 39.1153 117.486 39.3398C118.282 39.646 119.119 39.8909 119.119 40.8503C119.119 41.6056 118.507 42.2588 117.445 42.2588C116.69 42.2792 116.69 42.2792 115.751 42.2996Z" fill="#B3C1D5"/>
<path d="M121.363 39.6859C121.363 38.0325 122.404 37.0527 123.588 37.0527C124.772 37.0527 125.813 38.0121 125.813 39.6859C125.813 41.3598 124.772 42.2987 123.588 42.2987C122.404 42.2987 121.363 41.3189 121.363 39.6859ZM125.384 39.6859C125.384 38.3591 124.608 37.4406 123.608 37.4406C122.608 37.4406 121.832 38.3591 121.832 39.6859C121.832 41.0128 122.608 41.9109 123.608 41.9109C124.608 41.9109 125.384 41.0128 125.384 39.6859Z" fill="#B3C1D5"/>
<path d="M128.141 37.1752H128.508L128.549 38.1142H128.57C128.896 37.5018 129.386 37.0527 129.978 37.0527C130.141 37.0527 130.305 37.0731 130.468 37.1548L130.346 37.5222C130.203 37.4814 130.06 37.461 129.917 37.461C129.468 37.461 128.937 37.808 128.549 38.747V42.1558H128.121L128.141 37.1752Z" fill="#B3C1D5"/>
<path d="M74.2737 42.279V34.6855H74.7023V42.279H74.2737Z" fill="#B3C1D5"/>
<path d="M132.081 42.2996L132.142 41.9118C132.897 41.9118 133.081 41.9118 133.816 41.9118C134.612 41.9118 135.02 41.4423 135.02 40.9116C135.02 40.2788 134.367 39.993 133.795 39.7889C133.02 39.5235 132.244 39.2173 132.244 38.36C132.244 37.6456 132.795 37.0332 133.836 37.0332C134.347 37.0332 134.857 37.2169 135.245 37.5435L135 37.8089C134.653 37.5435 134.245 37.4006 133.816 37.4006C133.02 37.4006 132.673 37.8497 132.673 38.3192C132.673 38.8907 133.203 39.1153 133.816 39.3398C134.612 39.646 135.449 39.8909 135.449 40.8503C135.449 41.6056 134.836 42.2588 133.775 42.2588C133.02 42.2792 133.02 42.2792 132.081 42.2996Z" fill="#B3C1D5"/>
</svg>
