<svg width="105" height="32" viewBox="0 0 105 32" fill="none" xmlns="http://www.w3.org/2000/svg">
<path d="M9.24557 0.185547C9.37463 0.228567 9.54671 0.228565 9.71879 0.271585C10.4931 0.314605 11.2675 0.400647 12.0419 0.529707C12.5581 0.615746 13.0743 0.701785 13.5906 0.830844C14.0208 0.959903 14.451 1.13198 14.8381 1.26104C15.0963 1.34708 15.3544 1.43312 15.6125 1.56218C15.7416 1.6052 15.8706 1.73426 15.9997 1.77728C16.0857 1.8203 16.1718 1.86332 16.2578 1.86332C16.3438 1.90634 16.4729 1.94936 16.5589 1.99238C16.9461 2.20748 17.3333 2.50862 17.6344 2.80975C17.8065 2.98183 17.9786 3.11089 18.1507 3.28297C18.3658 3.54109 18.6239 3.79921 18.796 4.10035C18.968 4.35847 19.1401 4.61659 19.3122 4.87471C19.6564 5.43396 19.9575 6.03624 20.1296 6.68154C20.2156 7.11173 20.3447 7.54193 20.4737 7.92911C20.5598 8.27327 20.6028 8.61743 20.6458 8.96159C20.7319 9.865 20.7319 10.7684 20.6888 11.7149C20.6888 12.1881 20.6028 12.6183 20.5598 13.0915C20.4737 13.7368 20.3447 14.3821 20.1296 15.0274C20.0866 15.3285 20.0005 15.6297 19.8284 15.8878C19.8284 15.8878 19.8284 15.8878 19.8284 15.9308C19.7854 16.361 19.4413 16.7052 19.3122 17.1354C19.3122 17.1784 19.2692 17.2214 19.2262 17.2644C19.0111 17.6086 18.796 17.9097 18.5809 18.2108C18.4948 18.3399 18.3658 18.469 18.2367 18.555L17.7635 19.0712C17.7205 19.1143 17.6775 19.1573 17.6344 19.2003L17.3763 19.4584C17.3333 19.5014 17.3333 19.5014 17.3333 19.5445C16.9891 19.8026 16.645 20.0607 16.3008 20.3188C15.9567 20.5769 15.6985 20.663 15.3974 20.8351C15.2253 20.9211 15.0532 21.0071 14.8812 21.0502L13.9347 21.3943C13.7627 21.4804 13.5476 21.5234 13.3755 21.6094C13.2034 21.6954 13.0313 21.6954 12.8592 21.7385C12.6872 21.7815 12.386 21.8245 12.1709 21.8675C11.7407 21.9105 11.3535 21.9966 10.9233 22.0396C9.67577 22.1687 8.42819 22.0826 7.18062 22.1256H7.1376V30.7296H0.426514C0.426514 20.5339 0.426514 10.3812 0.426514 0.185547H9.24557ZM7.1376 6.33738C7.1376 9.43481 7.1376 12.5322 7.1376 15.6297H8.94444C9.07349 15.6297 9.20255 15.5866 9.37463 15.5866C9.76181 15.5866 10.149 15.5436 10.5362 15.4146H10.5792C10.7943 15.3715 11.0094 15.3285 11.2245 15.2425C11.6547 15.0274 12.0419 14.8123 12.429 14.5542C12.6441 14.4251 12.8592 14.253 13.0313 14.0379C13.3325 13.6077 13.5476 13.1345 13.8057 12.7043C13.8057 12.6613 13.8487 12.6613 13.8487 12.6183C13.8917 12.4462 13.8917 12.3171 13.9347 12.1451C13.9778 11.8869 14.0208 11.6288 14.0638 11.3707C14.1068 10.9835 14.0638 10.5963 14.0208 10.2522C13.9777 9.99406 13.9778 9.73594 13.9347 9.52084C13.8487 9.2197 13.7196 8.91857 13.5476 8.66045C13.5045 8.53139 13.4185 8.40233 13.3325 8.27327C13.1604 8.05817 12.9453 7.84307 12.7302 7.58495C12.429 7.32683 12.0849 7.06872 11.7407 6.89664C11.6977 6.89664 11.6977 6.85362 11.6547 6.85362C11.2675 6.72456 10.9233 6.5955 10.5362 6.50946C10.192 6.42342 9.84785 6.3804 9.50369 6.3804C8.81537 6.3804 8.12706 6.3804 7.39572 6.3804L7.1376 6.33738Z" fill="#B3C1D5"/>
<path d="M29.6388 0.185547C29.6388 0.228567 29.6388 0.314607 29.6388 0.357627C29.6388 4.35847 29.6388 8.31629 29.6388 12.3171V12.5322C29.6818 12.4462 29.7248 12.4462 29.7678 12.3602C30.3271 11.7149 30.9294 11.0696 31.4886 10.4243C31.6177 10.2952 31.7468 10.2092 31.8758 10.1231C32.349 9.77896 32.8653 9.47782 33.4245 9.26272C33.7257 9.17669 33.9838 9.09065 34.2849 9.04763L34.8012 8.91857L34.8872 8.87555C35.3604 8.87555 35.8767 8.78951 36.3929 8.83253C37.1242 8.87555 37.8556 9.04763 38.5869 9.26272C38.6729 9.30575 38.759 9.34877 38.845 9.39179L39.7054 9.90802L39.7915 9.95104C40.2647 10.3812 40.6949 10.8975 40.996 11.4137C41.1681 11.8009 41.3402 12.1881 41.4262 12.6183C41.5983 13.2205 41.6843 13.8658 41.8134 14.5111C41.8134 14.5972 41.8134 14.6402 41.8134 14.7262V30.7296H35.7906V30.5145C35.7906 26.6857 35.7906 22.857 35.7906 19.0282C35.7906 18.3829 35.7476 17.7806 35.5755 17.1784C35.5325 17.0063 35.4895 16.8342 35.4465 16.6621C35.3174 16.275 35.0593 15.8878 34.7581 15.5866C34.6721 15.5006 34.543 15.4576 34.457 15.4146C34.0268 15.1134 33.5106 14.9844 32.9943 14.9844C32.4781 14.9413 31.9619 15.0274 31.4886 15.2425C31.2305 15.3715 30.9724 15.5866 30.7143 15.7587C30.5852 15.8878 30.4562 16.0168 30.3271 16.1459C30.2841 16.2319 30.198 16.318 30.198 16.404C29.8969 17.0063 29.6818 17.6086 29.5958 18.2539C29.5958 18.3399 29.5958 18.469 29.5958 18.555C29.5958 22.5558 29.5958 26.5137 29.5958 30.5145V30.7296H23.573V30.5575C23.573 20.4909 23.573 10.4243 23.573 0.357627C23.573 0.314607 23.573 0.271586 23.573 0.228566L29.6388 0.185547Z" fill="#B3C1D5"/>
<path d="M62.7204 0.185547C62.7204 0.271586 62.7204 0.357626 62.7204 0.400646C62.7204 10.4243 62.7204 20.4479 62.7204 30.4715V30.6866H56.6976V30.4715C56.6976 20.4479 56.6976 10.3812 56.6976 0.357627C56.6976 0.314607 56.6976 0.228567 56.6976 0.185547H62.7204Z" fill="#B3C1D5"/>
<path d="M52.1798 0.185547C52.1798 0.228567 52.1798 0.314607 52.1798 0.357627V5.60604H46.157V5.43396C46.157 3.75619 46.157 2.0354 46.157 0.357627C46.157 0.314607 46.157 0.228567 46.157 0.185547H52.1798Z" fill="#B3C1D5"/>
<path d="M93.3923 31.0737H92.704C92.2738 31.0737 91.8006 31.0307 91.3704 30.9016C91.0692 30.8156 90.7251 30.8156 90.4239 30.6865C90.0798 30.6435 89.7356 30.5145 89.4775 30.3424C89.4345 30.2994 89.3484 30.2994 89.2624 30.2994L88.7892 30.0843C88.7461 30.0412 88.7031 30.0412 88.7031 30.0412C88.488 29.9982 88.2729 29.8692 88.1008 29.7401C87.7997 29.525 87.4986 29.3529 87.1974 29.1378C86.4661 28.6646 85.8208 28.1053 85.2615 27.46C84.8313 27.0298 84.4442 26.5136 84.143 25.9974C83.8419 25.5242 83.5838 25.0079 83.3687 24.5347C83.2396 24.1905 83.1105 23.8464 82.9815 23.5022C82.9385 23.3732 82.8524 23.2441 82.8094 23.115C82.7234 22.6418 82.6373 22.1256 82.5513 21.6524C82.4222 20.9641 82.3792 20.2757 82.4222 19.5874C82.4222 19.1572 82.5083 18.727 82.5513 18.2968C82.5943 17.9096 82.6804 17.5655 82.7664 17.1783C82.7664 17.1353 82.7664 17.0493 82.7664 17.0062C82.8094 16.8342 82.8524 16.6621 82.9385 16.49C82.9815 16.3609 83.0245 16.2319 83.0675 16.1028C83.1536 15.7587 83.2826 15.4575 83.4547 15.1134C83.7558 14.4681 84.1 13.9088 84.4872 13.3065C84.6162 13.1345 84.7453 12.9624 84.8744 12.8333C85.1325 12.5752 85.3046 12.231 85.6487 12.0159C85.7348 11.9729 85.7778 11.8439 85.8638 11.7578C86.0789 11.5857 86.251 11.3706 86.5091 11.1986C86.9823 10.8114 87.4986 10.4672 88.0148 10.1231C88.2299 9.994 88.445 9.86495 88.6601 9.77891C89.0043 9.60683 89.3054 9.47777 89.6496 9.34871C89.7786 9.30569 89.9507 9.26267 90.0798 9.21965C90.639 9.09059 91.1983 8.96153 91.8006 8.83247C92.5319 8.74643 93.2632 8.70341 93.9946 8.74643C94.3817 8.74643 94.7259 8.78945 95.1131 8.83247C95.1991 8.83247 95.3282 8.91851 95.4142 8.91851C95.8874 8.96153 96.4037 9.09059 96.8339 9.26267C97.006 9.30569 97.135 9.39173 97.3071 9.47777C97.3501 9.47777 97.3501 9.52079 97.3931 9.52079C97.8233 9.64985 98.2105 9.82193 98.5977 10.037C98.8988 10.1661 99.2 10.3812 99.4581 10.5963C99.8453 10.8544 100.189 11.1555 100.534 11.4567C100.749 11.6288 100.921 11.8008 101.093 11.9729C101.437 12.3171 101.781 12.7043 102.125 13.0914C102.211 13.2205 102.297 13.3496 102.34 13.4786C102.599 13.8658 102.814 14.2099 103.072 14.5971C103.115 14.6401 103.115 14.6832 103.158 14.7262C103.201 14.9413 103.287 15.1564 103.459 15.3285C103.502 15.4145 103.545 15.5005 103.588 15.5866C103.674 15.7587 103.717 15.9307 103.803 16.1028C103.889 16.2749 103.932 16.49 103.975 16.7051C104.061 17.1353 104.19 17.6085 104.233 18.0387C104.362 18.9421 104.405 19.8886 104.405 20.792C104.405 20.9641 104.362 21.1361 104.319 21.3082C104.276 21.5663 104.276 21.8245 104.19 22.0826C104.104 22.5558 103.975 23.029 103.889 23.5022C103.846 23.6313 103.803 23.8034 103.717 23.9324C103.717 23.9754 103.674 24.0185 103.674 24.0185C103.545 24.3196 103.459 24.6638 103.33 24.9649C103.33 25.0079 103.33 25.0079 103.287 25.0079C102.9 25.6102 102.556 26.1694 102.168 26.7287C102.039 26.9438 101.867 27.1159 101.695 27.288C101.351 27.6751 100.964 28.0193 100.577 28.3635C100.146 28.8367 99.6302 29.1808 99.0709 29.482C98.9849 29.525 98.8988 29.611 98.8128 29.6541C98.4256 29.9122 98.0384 30.0842 97.6082 30.2563C97.092 30.4714 96.5758 30.6865 96.0165 30.8156C95.7154 30.9016 95.4142 30.9446 95.1131 30.9877C94.5538 31.0307 93.9946 31.0737 93.3923 31.0737C93.3923 31.1167 93.3923 31.1167 93.3923 31.0737ZM88.7031 19.9746C88.6601 20.5769 88.7461 21.1792 88.9612 21.7814C89.0473 21.9965 89.1333 22.2116 89.2624 22.4267C89.3054 22.5558 89.3914 22.6848 89.4775 22.7709C89.6065 22.943 89.7356 23.115 89.8647 23.2441C89.9077 23.3301 89.9937 23.4162 90.0798 23.4592C90.2949 23.6313 90.4669 23.8464 90.7251 24.0185C90.9402 24.1905 91.1983 24.3626 91.4564 24.4917C91.9726 24.7068 92.4889 24.8789 93.0481 24.9219C93.4783 24.9649 93.9515 24.9649 94.3817 24.8789C95.1561 24.7498 95.8874 24.3626 96.4467 23.8034C96.5758 23.6743 96.7048 23.5883 96.8339 23.4592C97.092 23.1581 97.3071 22.8139 97.5222 22.5128C97.7373 22.2116 97.8664 21.8675 97.9524 21.4803C97.9954 21.2652 98.0384 21.0931 98.0814 20.878C98.1245 20.6199 98.1675 20.3618 98.2105 20.1037C98.2105 19.8455 98.1675 19.6304 98.1675 19.3723C98.1675 19.1572 98.1245 18.8991 98.0814 18.684C97.9524 18.0817 97.6943 17.5225 97.3071 17.0062C97.049 16.7051 96.8339 16.3609 96.5327 16.1028C96.2746 15.8447 95.9735 15.6296 95.6723 15.4145C94.984 14.9843 94.2097 14.9843 93.4353 14.8983C93.1772 14.8552 92.876 14.8983 92.6179 14.9843C92.1017 15.1134 91.5854 15.3285 91.1122 15.6296C90.9402 15.7156 90.8111 15.8447 90.682 15.9738C90.2518 16.2749 89.9077 16.7051 89.6065 17.1353C89.5205 17.2644 89.4775 17.3504 89.4345 17.4794C89.3484 17.6945 89.2194 17.8666 89.1333 18.0817C88.9613 18.5549 88.8752 19.0282 88.8752 19.5444C88.7461 19.7165 88.7462 19.8455 88.7031 19.9746Z" fill="#B3C1D5"/>
<path d="M80.7451 9.26299V15.2858L80.616 15.2427C80.444 15.1567 80.2289 15.1137 80.0138 15.1137C79.8417 15.1137 79.7126 15.0707 79.5405 15.0276C79.4115 14.9846 79.2394 14.9846 79.1103 14.9846C78.7662 14.9416 78.4651 14.8986 78.1209 14.9416C77.5186 14.9416 76.9163 15.0276 76.3571 15.1997C76.228 15.2427 76.0559 15.2858 75.8839 15.3288C75.2816 15.5009 74.7223 15.802 74.2061 16.2322C73.991 16.4043 73.7759 16.6194 73.6038 16.8775C73.4317 17.0926 73.3027 17.3507 73.1306 17.6088C73.0876 17.6519 73.0876 17.7379 73.0876 17.7809C73.0015 17.953 72.9585 18.1251 72.8725 18.2541C72.8725 18.2971 72.8295 18.3402 72.8295 18.3832C72.7864 18.5553 72.7864 18.6843 72.7434 18.8564C72.7004 19.0285 72.7004 19.2006 72.7004 19.3726C72.7004 19.6308 72.7004 19.8459 72.7004 20.104C72.7004 20.6202 72.7864 21.1365 72.9585 21.6097C73.1736 22.212 73.4748 22.7282 73.8619 23.2444C74.034 23.4595 74.2061 23.6316 74.4212 23.7607C74.4642 23.8037 74.5072 23.8037 74.5933 23.8467C75.2816 24.3629 76.099 24.7071 76.9594 24.8792C77.0884 24.9222 77.2175 24.9222 77.3896 24.9222C77.7767 24.9652 78.1209 24.9652 78.5081 24.9652C78.9383 24.9652 79.3685 24.8792 79.7556 24.8362C80.0568 24.7931 80.3579 24.7931 80.7021 24.7501V30.7299C80.487 30.7729 80.2719 30.7729 80.0568 30.8159L79.3254 30.945C79.1103 30.988 78.9383 31.031 78.7232 31.031C78.0779 31.074 77.3896 31.117 76.7443 31.117C76.3141 31.117 75.8839 31.074 75.4537 30.988C75.1095 30.945 74.7653 30.8159 74.4212 30.7729C73.948 30.6869 73.5178 30.5578 73.0876 30.3857C72.5713 30.2136 72.0551 29.9555 71.5819 29.6544C71.4528 29.5683 71.2807 29.5253 71.1517 29.4393C70.4634 28.9661 69.8181 28.4068 69.2588 27.8045C68.7426 27.2453 68.2694 26.6 67.8822 25.9117L67.495 25.2233C67.495 25.2233 67.495 25.1803 67.452 25.1803C67.2799 24.7071 67.1508 24.2769 67.0218 23.8037C66.8927 23.3305 66.7637 22.9003 66.6776 22.427C66.5916 22.1259 66.5486 21.8678 66.5486 21.5667C66.5055 20.7923 66.4625 20.0179 66.4625 19.2436C66.4625 18.6413 66.5486 18.039 66.6346 17.4798C66.7206 16.8775 66.9357 16.2752 67.0648 15.716C67.0648 15.6729 67.1078 15.5869 67.1508 15.5439L67.3229 15.1137C67.3659 14.9416 67.452 14.8125 67.538 14.6405C67.8392 14.1242 68.1403 13.651 68.4414 13.1348C68.5705 12.9627 68.6565 12.8336 68.8286 12.7046C69.0007 12.5325 69.1728 12.3174 69.3449 12.1453C69.5169 11.9732 69.732 11.8012 69.9041 11.6291C70.5064 11.1559 71.1087 10.7257 71.797 10.2955C71.883 10.2524 71.9691 10.2094 72.0551 10.1664L72.7434 9.86527C72.9155 9.77923 73.1306 9.73621 73.3027 9.65017C73.4748 9.56413 73.6899 9.47809 73.8619 9.43507C74.12 9.34903 74.4212 9.30601 74.6793 9.21997C74.7223 9.21997 74.7653 9.21997 74.8084 9.21997C75.2386 9.13393 75.7118 9.04789 76.142 9.00487C77.0024 8.91883 77.8628 8.91883 78.7662 8.96185C79.0673 8.96185 79.3685 9.00487 79.6696 9.09091L80.3149 9.17695C80.444 9.17695 80.53 9.21997 80.6591 9.26299" fill="#B3C1D5"/>
<path d="M52.1804 30.7297H46.2006C46.2006 23.5454 46.2006 16.4041 46.2006 9.2198H52.1804V30.7297Z" fill="#B3C1D5"/>
</svg>
