<svg width="148" height="39" viewBox="0 0 148 39" fill="none" xmlns="http://www.w3.org/2000/svg">
<path fill-rule="evenodd" clip-rule="evenodd" d="M17.1437 0.541992C7.84026 0.541992 0.28125 8.10101 0.28125 17.4044C0.28125 26.7078 7.81383 34.2668 17.1437 34.2668C26.4471 34.2668 34.0061 26.7078 34.0061 17.4044C34.0061 8.10101 26.4471 0.568422 17.1437 0.541992ZM17.1437 31.6238C9.29392 31.6238 2.92426 25.2542 2.92426 17.4044C2.92426 9.55466 9.26749 3.185 17.1437 3.185C24.9934 3.185 31.3631 9.55466 31.3366 17.4044C31.3631 25.2542 24.9934 31.6238 17.1437 31.6238Z" fill="#B3C1D5"/>
<path fill-rule="evenodd" clip-rule="evenodd" d="M18.3328 17.4042C18.3328 16.7434 17.8042 16.2148 17.1435 16.2148C16.4827 16.2148 15.9541 16.7434 15.9541 17.4042C15.9541 18.065 16.4827 18.5936 17.1435 18.5936C17.8042 18.5936 18.3328 18.065 18.3328 17.4042Z" fill="#B3C1D5"/>
<path fill-rule="evenodd" clip-rule="evenodd" d="M11.4868 13.6784C11.4868 13.6784 14.3149 15.3171 15.7421 16.1364C16.0064 15.8193 16.4028 15.5814 16.8522 15.5021V15.4757C16.8522 14.7092 16.6407 13.9692 16.2707 13.3613L16.2443 13.3348L16.2707 13.3084C16.5879 13.0705 16.8786 12.7534 17.1165 12.4098L17.1429 12.3569L17.1693 12.4098C17.4072 12.7534 17.6979 13.0441 18.0151 13.3084L18.0415 13.3348L18.0151 13.3613C17.6451 13.9956 17.4336 14.7356 17.4336 15.5285C17.8829 15.6078 18.253 15.8193 18.5173 16.1629L22.7989 13.7049C24.8605 12.5155 25.5741 9.87249 24.3847 7.81095C23.1954 5.7494 20.5524 5.03578 18.4908 6.22514C17.9358 6.5423 17.4865 6.96518 17.1429 7.46736C16.7993 6.96518 16.35 6.5423 15.795 6.22514C13.7334 5.03578 11.0904 5.7494 9.90104 7.81095C8.71169 9.87249 9.4253 12.4891 11.4868 13.6784Z" fill="#B3C1D5"/>
<path fill-rule="evenodd" clip-rule="evenodd" d="M15.6624 18.621L15.6359 18.6474C14.9752 19.0439 14.4466 19.5989 14.0765 20.2068L14.0501 20.2332L14.0237 20.2068C13.6537 20.0482 13.2572 19.9689 12.8343 19.9161H12.7815L12.8079 19.8632C12.9929 19.4932 13.0986 19.0968 13.1515 18.7003V18.6739H13.1779C13.918 18.6739 14.658 18.4889 15.3452 18.0924C15.1866 17.6695 15.1866 17.2202 15.3452 16.8238L11.0635 14.3658C9.00196 13.1764 6.35895 13.89 5.1696 15.9516C3.98024 18.0131 4.69385 20.6561 6.7554 21.8191C7.31044 22.1362 7.91833 22.3212 8.49979 22.3741C8.23549 22.9291 8.10334 23.537 8.10334 24.1713C8.10334 26.55 10.0327 28.4794 12.4114 28.4794C14.7902 28.4794 16.7196 26.55 16.7196 24.1713V19.2553C16.3231 19.176 15.9267 18.9646 15.6624 18.621Z" fill="#B3C1D5"/>
<path fill-rule="evenodd" clip-rule="evenodd" d="M29.0889 15.9506C27.8995 13.889 25.2565 13.1754 23.2214 14.3648C23.2214 14.3648 20.3934 16.0035 18.9662 16.8228C19.0983 17.2192 19.1247 17.6686 18.9662 18.0914L18.9926 18.1179C19.6798 18.5143 20.3934 18.6729 21.1334 18.6729H21.1863V18.6993C21.2392 19.0958 21.3713 19.4922 21.5299 19.8623L21.5563 19.9151H21.5035C21.0806 19.9415 20.6841 20.0473 20.3141 20.2058L20.2877 20.2323L20.2612 20.2058C19.8912 19.5715 19.3626 19.0165 18.6754 18.62C18.3847 18.9636 18.0147 19.1751 17.5918 19.2544V24.1968C17.5918 26.5755 19.5212 28.5049 21.8999 28.5049C24.2786 28.5049 26.208 26.5755 26.208 24.1968C26.208 23.5625 26.0759 22.9546 25.8116 22.3995C26.4195 22.3467 27.0009 22.1617 27.5559 21.8445C29.5646 20.6552 30.2783 18.0121 29.0889 15.9506Z" fill="#B3C1D5"/>
<path d="M147.496 14.3917C147.311 13.5459 147.021 12.8323 146.624 12.198C146.043 11.2993 145.224 10.6121 144.219 10.1364C143.241 9.68709 142.131 9.44922 140.889 9.44922C140.889 9.44922 140.889 9.44922 140.863 9.44922C139.726 9.44922 138.722 9.63423 137.85 10.0307C137.506 10.1628 137.189 10.3478 136.872 10.5593V9.79281H133.383V26.6288H136.872V18.409C136.872 17.1404 136.924 16.2418 137.004 15.766C137.083 15.3167 137.215 14.9467 137.427 14.6031C137.744 14.0481 138.167 13.6516 138.695 13.3609C139.25 13.0701 139.911 12.9116 140.651 12.9116C141.92 12.9116 142.818 13.2287 143.347 13.8366C143.902 14.4974 144.193 15.6603 144.193 17.2461V26.6024H147.708V17.8276C147.734 16.3211 147.655 15.211 147.496 14.3917Z" fill="#B3C1D5"/>
<path d="M123.709 9.37109C121.119 9.37109 119.005 10.2169 117.366 11.9084C115.728 13.5735 114.882 15.7143 114.882 18.2252C114.882 20.6568 115.728 22.7447 117.419 24.4891C119.084 26.2071 121.172 27.0793 123.604 27.0793C123.604 27.0793 123.604 27.0793 123.63 27.0793C125.454 27.0793 127.093 26.5771 128.52 25.5728C129.973 24.5156 130.898 23.3526 131.639 21.6082L132.088 20.4982H128.176L127.965 20.9475C127.515 21.8725 127.04 22.2954 126.247 22.824C125.454 23.3526 124.582 23.5905 123.577 23.5905H123.551C122.15 23.5905 120.987 23.1676 120.062 22.269C119.296 21.5554 118.82 20.6832 118.608 19.5996L132.273 19.5731V18.6481C132.273 15.9258 131.48 13.6792 129.894 11.9612C128.282 10.2433 126.194 9.37109 123.709 9.37109ZM128.255 16.3222L118.714 16.3486C118.979 15.3972 119.454 14.6043 120.141 13.9964C121.014 13.2035 122.097 12.807 123.366 12.807H123.392C124.793 12.807 125.877 13.1506 126.723 13.8906C127.41 14.4721 127.912 15.265 128.255 16.3222Z" fill="#B3C1D5"/>
<path d="M110.153 11.1145C109.73 10.7973 109.28 10.5066 108.778 10.2687C107.695 9.76653 106.479 9.50222 105.184 9.50222H105.157C102.699 9.50222 100.638 10.3744 98.999 12.0395C97.3604 13.7046 96.541 15.819 96.541 18.2506C96.541 20.7086 97.3868 22.823 99.0254 24.5145C100.664 26.2061 102.726 27.0783 105.131 27.0783C105.131 27.0783 105.131 27.0783 105.157 27.0783C106.426 27.0783 107.615 26.814 108.725 26.2854C109.227 26.0475 109.703 25.7567 110.153 25.4396V26.6818H113.694V4.87695H110.153V11.1145ZM108.699 14.4975C109.73 15.5812 110.205 16.8498 110.205 18.4092C110.205 19.8364 109.703 21.0258 108.699 22.1094C107.695 23.1666 106.558 23.6952 105.263 23.6952C103.836 23.6952 102.673 23.193 101.668 22.1358C100.664 21.0786 100.162 19.7835 100.162 18.1977C100.162 16.7176 100.664 15.4754 101.668 14.4447C102.673 13.4139 103.836 12.9117 105.237 12.9117C105.237 12.9117 105.237 12.9117 105.263 12.9117C106.558 12.9117 107.695 13.4139 108.699 14.4975Z" fill="#B3C1D5"/>
<path d="M91.7814 11.1418C91.3585 10.8246 90.9092 10.5339 90.4071 10.296C89.3234 9.79387 88.1076 9.52957 86.7861 9.52957C84.3281 9.52957 82.2666 10.4018 80.6279 12.0669C78.9893 13.732 78.1699 15.8464 78.1699 18.2779C78.1699 20.7359 79.0157 22.8503 80.6544 24.5419C82.293 26.2334 84.3546 27.1056 86.7597 27.1056H86.7861C88.0284 27.1056 89.2441 26.8413 90.3542 26.3127C90.8564 26.0748 91.3321 25.7841 91.7814 25.4669V26.7091H95.3231V4.9043H91.7814V11.1418ZM90.3278 14.5249C91.3585 15.6085 91.8343 16.8771 91.8343 18.4365C91.8343 19.8637 91.3321 21.0531 90.3278 22.1367C89.3234 23.1939 88.1869 23.7225 86.8919 23.7225C86.8919 23.7225 86.8919 23.7225 86.8654 23.7225C85.4382 23.7225 84.2753 23.2204 83.2709 22.1632C82.2666 21.106 81.7644 19.8109 81.7644 18.2251C81.7644 16.745 82.2666 15.5028 83.2709 14.472C84.2753 13.4412 85.4382 12.9391 86.839 12.9391C88.1869 12.9391 89.3234 13.4677 90.3278 14.5249Z" fill="#B3C1D5"/>
<path d="M73.4115 18.1974C73.4115 19.7832 73.3323 20.5232 73.2794 20.8668C73.2001 21.3161 73.068 21.7126 72.8829 22.0033C72.5393 22.5583 72.1165 22.9812 71.5614 23.2719C71.0064 23.5627 70.3721 23.7213 69.632 23.7213C68.337 23.7213 67.4383 23.4041 66.9362 22.7433C66.5397 22.2676 66.0904 21.184 66.0904 18.8317V9.95117H62.5752V18.6995C62.5752 21.6597 63.1038 23.7741 64.2139 25.1221C65.3239 26.4964 67.1212 27.1836 69.5527 27.1836H69.5792C70.7421 27.1836 71.72 26.9986 72.5394 26.6286C72.8301 26.4964 73.1208 26.3378 73.4115 26.1528V26.7872H76.9532V9.95117H73.4115V18.1974Z" fill="#B3C1D5"/>
<path d="M60.3848 9.6875C59.4862 9.71393 58.7197 9.92537 58.0326 10.2954C57.9004 10.3747 57.7683 10.454 57.6361 10.5333V9.92537H54.2002V26.7878H57.7683V16.7972C57.7683 15.6078 57.9797 14.7357 58.3762 14.2599C58.7726 13.8106 59.4598 13.5199 60.4641 13.4406L61.1777 13.3877L61.1513 9.71393L60.3848 9.6875Z" fill="#B3C1D5"/>
<path d="M50.1285 14.9993C50.4721 14.6821 50.7364 14.3121 50.9743 13.8892C51.3971 13.1228 51.6086 12.1977 51.6086 11.1405C51.6086 9.05254 50.9743 7.49316 49.7056 6.48881C48.4898 5.5109 46.6926 5.03516 44.2081 5.03516H44.1817H39.6357V26.84H44.8953C47.5119 26.84 49.4677 26.285 50.7628 25.2013C52.0843 24.0913 52.7451 22.3469 52.7451 20.0739C52.7451 18.726 52.4279 17.563 51.7936 16.638C51.3443 15.9508 50.7892 15.4222 50.1285 14.9993ZM43.0981 13.7307V8.52393H44.0231H44.0496C45.8997 8.52393 46.7719 8.86752 47.1948 9.15826C47.7234 9.52828 47.9877 10.1362 47.9877 11.0348C47.9877 11.9863 47.7234 12.647 47.1419 13.0435C46.6926 13.3606 45.7147 13.7042 43.4681 13.7307H43.0981ZM48.1991 18.0388C48.807 18.5145 49.0977 19.2546 49.0977 20.2853C49.0977 21.3161 48.807 22.0562 48.2255 22.5319C47.5912 23.0341 46.534 23.2984 45.0803 23.2984H43.0981V17.2723H45.1068C46.5076 17.2723 47.5648 17.5102 48.1991 18.0388Z" fill="#B3C1D5"/>
<path d="M67.5732 38.5765H71.7492V37.7043H68.4719V35.0349H71.7492V34.1362H68.4719V31.5197H71.7492V30.6475H67.5732V38.5765Z" fill="#B3C1D5"/>
<path d="M80.7089 37.7556C80.5503 37.7027 80.3917 37.6499 80.2596 37.5706C80.656 37.1741 80.9732 36.7512 81.1582 36.3019C81.3697 35.8262 81.4754 35.2712 81.4754 34.6897C81.4754 33.4739 81.0789 32.4696 80.3124 31.6767C79.546 30.8838 78.5681 30.4873 77.4051 30.4873C76.8765 30.4873 76.3479 30.593 75.8986 30.778C75.4229 30.963 75 31.2538 74.6035 31.6502C74.2071 32.0467 73.8899 32.496 73.6785 32.9982C73.467 33.5003 73.3613 34.0289 73.3613 34.584C73.3613 35.7469 73.7578 36.7512 74.5243 37.5441C75.2907 38.337 76.2686 38.7599 77.4051 38.7599C77.8016 38.7599 78.1716 38.7071 78.5416 38.6013C78.8852 38.4956 79.2288 38.337 79.546 38.152C79.7838 38.3106 80.0481 38.4428 80.3124 38.5485C80.6032 38.6542 80.8675 38.7071 81.1318 38.7071C81.1846 38.7071 81.2904 38.7071 81.4489 38.6806C81.4754 38.6806 81.5018 38.6806 81.5282 38.6806H81.5811V37.8877H81.4225C81.1318 37.8349 80.9203 37.8084 80.7089 37.7556ZM75.3436 36.0376C75.555 35.9848 75.7665 35.9583 75.9515 35.9583C76.4536 35.9583 76.903 36.0641 77.2994 36.2755C77.6959 36.4869 78.198 36.9098 78.8324 37.5441C78.5945 37.6499 78.383 37.7292 78.1716 37.782C77.9337 37.8349 77.6959 37.8613 77.458 37.8613C76.8765 37.8613 76.3479 37.7027 75.8722 37.412C75.3964 37.1213 75.0264 36.7248 74.7357 36.2226C74.9471 36.1433 75.1586 36.0641 75.3436 36.0376ZM80.5767 34.5575C80.5767 35.0333 80.4975 35.4826 80.3124 35.9055C80.1274 36.3284 79.8896 36.6984 79.5724 37.0155C78.8852 36.2755 78.3038 35.7998 77.7752 35.509C77.2465 35.2183 76.6651 35.0861 76.0572 35.0861C75.7665 35.0861 75.4757 35.1126 75.185 35.1919C74.9471 35.2447 74.6828 35.324 74.4185 35.4562C74.3921 35.2976 74.3657 35.1654 74.3392 35.0333C74.3128 34.8747 74.3128 34.6897 74.3128 34.5311C74.3128 33.6853 74.63 32.9453 75.2379 32.311C75.8458 31.6767 76.5858 31.3595 77.4316 31.3595C78.3038 31.3595 79.0438 31.6767 79.6517 32.311C80.2596 32.9189 80.5767 33.6853 80.5767 34.5575Z" fill="#B3C1D5"/>
<path d="M87.2113 35.4831C87.2113 36.3025 87.0792 36.9368 86.7884 37.3068C86.5241 37.7033 86.1012 37.8883 85.5198 37.8883C85.2026 37.8883 84.8855 37.809 84.6476 37.6504C84.3833 37.4918 84.1983 37.2804 84.0661 36.9897C83.9868 36.8575 83.9604 36.6725 83.9075 36.5139C83.8811 36.3289 83.8547 36.0382 83.8547 35.6681V30.6729H82.9561V35.6946C82.9561 36.7518 83.1675 37.5183 83.5904 38.0204C84.0133 38.5226 84.674 38.7605 85.5726 38.7605C86.4184 38.7605 87.0527 38.4962 87.4492 37.994C87.8721 37.4918 88.0571 36.6989 88.0571 35.6946V30.6729H87.1849V35.4831H87.2113Z" fill="#B3C1D5"/>
<path d="M90.885 30.6455H89.9863V38.5745H90.885V30.6455Z" fill="#B3C1D5"/>
<path d="M97.2274 31.782C97.0424 31.4384 96.7781 31.1741 96.408 30.9627C96.223 30.8569 95.9852 30.7777 95.668 30.7248C95.3773 30.6719 94.9808 30.6455 94.5051 30.6455H92.7871V38.5745H93.6857V35.2972H94.6372C95.0865 35.2972 95.4565 35.2708 95.7473 35.1915C96.038 35.1386 96.3023 35.0329 96.5137 34.8743C96.8045 34.6629 97.0688 34.3986 97.2274 34.055C97.3859 33.7114 97.4917 33.3414 97.4917 32.9449C97.5181 32.522 97.4124 32.1256 97.2274 31.782ZM96.5666 32.9714C96.5666 33.4471 96.4345 33.8171 96.1437 34.0286C95.853 34.2664 95.4037 34.3722 94.7958 34.3722H93.7386V31.5177H94.7429C95.4037 31.5177 95.8794 31.6234 96.1702 31.8613C96.408 32.0992 96.5666 32.4692 96.5666 32.9714Z" fill="#B3C1D5"/>
<path d="M100.478 30.6455L97.4385 38.4953L97.4121 38.5745H98.3636L99.2886 36.1165H102.672L103.597 38.5745H104.548L101.482 30.6455H100.478ZM102.355 35.2972H99.5794L100.954 31.6234L102.355 35.2972Z" fill="#B3C1D5"/>
<path d="M109.624 37.3323L106.954 30.6455H105.712V38.5745H106.584V31.9406L109.227 38.5745H109.994L112.637 31.9406V38.5745H113.509V30.6455H112.267L109.624 37.3323Z" fill="#B3C1D5"/>
<path d="M115.439 38.5745H119.615V37.7023H116.338V35.0329H119.615V34.1343H116.338V31.5177H119.615V30.6455H115.439V38.5745Z" fill="#B3C1D5"/>
<path d="M126.829 37.3588L122.653 30.6719L122.626 30.6455H121.622V38.5745H122.494L122.415 31.8349L126.591 38.5481V38.5745H127.622V30.6455H126.75L126.829 37.3588Z" fill="#B3C1D5"/>
<path d="M128.998 31.5177H130.557V38.5745H131.456V31.5177H133.015V30.6455H128.998V31.5177Z" fill="#B3C1D5"/>
<path d="M140.469 31.6502C140.072 31.2802 139.649 30.963 139.173 30.778C138.698 30.593 138.169 30.4873 137.641 30.4873C137.112 30.4873 136.583 30.593 136.134 30.778C135.658 30.963 135.235 31.2538 134.839 31.6502C134.442 32.0467 134.125 32.496 133.914 32.9982C133.702 33.5003 133.597 34.0289 133.597 34.584C133.597 35.7469 133.993 36.7512 134.76 37.5441C135.526 38.337 136.504 38.7599 137.641 38.7599C138.222 38.7599 138.777 38.6542 139.306 38.4163C139.808 38.1785 140.284 37.8613 140.68 37.412C141.024 37.042 141.288 36.5927 141.473 36.1169C141.658 35.6412 141.737 35.139 141.737 34.5575C141.737 33.9761 141.631 33.4739 141.42 32.9717C141.182 32.496 140.865 32.0467 140.469 31.6502ZM140.759 34.5575C140.759 35.4826 140.469 36.2755 139.861 36.9098C139.253 37.5441 138.513 37.8613 137.667 37.8613C136.768 37.8613 136.028 37.5441 135.42 36.9098C134.812 36.2755 134.522 35.4826 134.522 34.5575C134.522 34.0818 134.627 33.6325 134.839 33.1832C135.05 32.7339 135.341 32.3638 135.711 32.0467C136.002 31.8088 136.293 31.6238 136.61 31.5181C136.927 31.3859 137.27 31.3331 137.641 31.3331C138.513 31.3331 139.253 31.6502 139.861 32.2846C140.442 32.9189 140.759 33.6853 140.759 34.5575Z" fill="#B3C1D5"/>
<path d="M147.102 34.9011C146.864 34.584 146.494 34.3197 145.965 34.1347C145.833 34.0818 145.648 34.0289 145.358 33.9232C144.908 33.7911 144.591 33.6325 144.432 33.5268C144.274 33.421 144.168 33.2889 144.089 33.1567C144.01 33.0246 143.983 32.8396 143.983 32.6546C143.983 32.2846 144.089 31.9674 144.327 31.7295C144.565 31.4916 144.855 31.3595 145.225 31.3595C145.569 31.3595 145.833 31.4652 146.045 31.6767C146.256 31.8881 146.362 32.2053 146.415 32.6281V32.681H147.261V32.6017C147.208 31.941 147.023 31.4124 146.679 31.0423C146.335 30.6723 145.833 30.4873 145.225 30.4873C144.591 30.4873 144.062 30.6987 143.666 31.0952C143.27 31.4916 143.058 32.0203 143.058 32.681C143.058 33.1832 143.19 33.5796 143.455 33.8968C143.719 34.2139 144.142 34.4518 144.723 34.6633L144.908 34.7161C145.965 35.0597 146.52 35.5883 146.52 36.2491C146.52 36.7248 146.388 37.0948 146.124 37.3591C145.86 37.6234 145.516 37.7556 145.093 37.7556C144.697 37.7556 144.353 37.6234 144.115 37.3591C143.851 37.0684 143.745 36.7248 143.719 36.2491V36.1962H142.847V36.2491C142.847 36.9891 143.058 37.5706 143.481 38.0199C143.904 38.4692 144.432 38.7071 145.067 38.7071C145.754 38.7071 146.335 38.4692 146.758 37.9935C147.181 37.5177 147.393 36.8834 147.393 36.1169C147.446 35.6412 147.34 35.2183 147.102 34.9011Z" fill="#B3C1D5"/>
</svg>
